<?xml version="1.0" encoding="utf-8"?>
<!-- Generator: Adobe Illustrator 19.0.0, SVG Export Plug-In . SVG Version: 6.00 Build 0)  -->
<svg version="1.1" xmlns="http://www.w3.org/2000/svg" xmlns:xlink="http://www.w3.org/1999/xlink" x="0px" y="0px"
	 viewBox="0 0 1278.1 633.1" style="enable-background:new 0 0 1278.1 633.1;" xml:space="preserve">
<style type="text/css">
	.st0{fill:#111111;}
</style>
<g id="Layer_1">
</g>
<g id="Layer_3">
	<g>
		<g>
			<g>
				<g>
					<path class="st0" d="M63.4,387.2c-2-9.4,0.3-18.7-0.1-28.2c0-0.5-0.9-0.4-0.9,0.1c-0.7,9.2-3.3,19.6-0.1,28.5
						C62.5,388,63.5,387.7,63.4,387.2L63.4,387.2z"/>
				</g>
			</g>
			<g>
				<g>
					<path class="st0" d="M64.6,385.6c-1.2-8.4-2.6-16.9-4.6-25.1c-0.1-0.4-0.9-0.3-0.8,0.1c1.1,8.3,2.2,17.1,4.8,25.1
						C64.2,386,64.7,385.9,64.6,385.6L64.6,385.6z"/>
				</g>
			</g>
			<g>
				<g>
					<path class="st0" d="M61.6,364.2c-1.7-9-7.8-16.9-12.6-24.6c-0.2-0.3-0.9-0.1-0.7,0.3c4,8.3,9.3,15.8,12.5,24.6
						C61,364.7,61.7,364.6,61.6,364.2L61.6,364.2z"/>
				</g>
			</g>
			<g>
				<g>
					<path class="st0" d="M50.8,344.2c-10.2-14.2-16.6-29.1-21.4-45.9c-0.2-0.6-1.2-0.4-1.1,0.2c3,16.5,10,33.9,21.5,46.2
						C50.2,345.1,51.2,344.7,50.8,344.2L50.8,344.2z"/>
				</g>
			</g>
			<g>
				<g>
					<path class="st0" d="M35,320.1c-5-5.4-5.4-14.9-5.3-21.8c0-7,0.9-14,2.8-20.7c0.1-0.5-0.7-0.5-0.9-0.1
						c-3.4,6.9-3.9,15.3-3.7,22.9c0.2,7,1,15.3,6.3,20.4C34.6,321,35.4,320.6,35,320.1L35,320.1z"/>
				</g>
			</g>
			<g>
				<g>
					<path class="st0" d="M32.3,279.6c1.2-10.1,9.6-18.8,16.2-26c0.3-0.4-0.3-0.6-0.6-0.4c-7.2,6.8-15.3,16-16.2,26.3
						C31.6,280,32.3,280,32.3,279.6L32.3,279.6z"/>
				</g>
			</g>
			<g>
				<g>
					<path class="st0" d="M34.4,272.4C39.2,259.9,50.6,252,62,246c0.6-0.3,0.2-1-0.4-0.8c-11.9,4.3-23.9,14.7-27.8,26.9
						C33.6,272.6,34.3,272.8,34.4,272.4L34.4,272.4z"/>
				</g>
			</g>
			<g>
				<g>
					<path class="st0" d="M60.1,244.3C60,244.3,60,244.4,60.1,244.3c-0.5,0.2-0.3,0.7,0.1,0.6c2.7-0.2,5.5-1.5,8.1-2.3
						c5.1-1.6,10.1-2.1,15.5-2.1c13.1,0,25,3.4,36.1,10.2c0.5,0.3,1.4-0.3,0.9-0.8c-9.1-8.4-23.3-10.8-35.3-11
						c-5-0.1-10.1,0.1-15,1.6c-2.3,0.7-4.6,1.5-6.8,2.3c-0.7,0.3-1.7,0.5-2.3,0.9c-0.3,0.1-0.7,0.3-1,0.4c-0.4,0.1-0.4,0.3,0.1,0.6
						C60.8,244.6,60.4,244.1,60.1,244.3L60.1,244.3z"/>
				</g>
			</g>
			<g>
				<g>
					<path class="st0" d="M118.2,251.2c8.6,0.9,12.9,12.5,15.7,19.4c3.2,8.1,6.3,17.4,6.3,26.2c0,0.6,0.9,0.6,1,0.1
						c1.1-4,0-8.8-0.9-12.7c-1.4-6-3.4-11.9-5.9-17.5c-2-4.5-8.9-19.6-16.3-16.1C117.8,250.8,117.8,251.1,118.2,251.2L118.2,251.2z"
						/>
				</g>
			</g>
			<g>
				<g>
					<path class="st0" d="M139.8,291.6c-0.3,10-2,19.9-5.7,29.3c-3.5,9.1-8.8,16.9-13.2,25.5c-0.3,0.5,0.6,0.7,0.9,0.4
						c11.5-15.2,19-36,18.8-55.1C140.5,291.2,139.8,291.2,139.8,291.6L139.8,291.6z"/>
				</g>
			</g>
			<g>
				<g>
					<path class="st0" d="M140.8,297.4c-0.6,11.5-3.6,22.6-8.5,33c-5,10.4-11.8,19.1-19.1,28c-0.3,0.4,0.3,0.8,0.6,0.5
						c8.4-7.2,14.6-17.5,19.3-27.4c5-10.7,8.3-22.2,8.5-34C141.6,297,140.8,296.9,140.8,297.4L140.8,297.4z"/>
				</g>
			</g>
			<g>
				<g>
					<path class="st0" d="M117.3,351c-7.1,9.9-11.8,23-11,35.3c0,0.4,0.8,0.3,0.8-0.1c1.2-12.8,4.7-23.6,11-34.9
						C118.4,350.9,117.6,350.6,117.3,351L117.3,351z"/>
				</g>
			</g>
			<g>
				<g>
					<path class="st0" d="M113.9,358.7c-3.6,1.9-4.3,9.2-5,12.6c-1.3,6.5-2.4,13.4-2.5,20.1c0,0.4,0.7,0.4,0.8,0
						c0.8-5.5,1.3-11.1,2.3-16.6c0.8-5,1.4-11.8,5-15.6C114.6,358.9,114.2,358.6,113.9,358.7L113.9,358.7z"/>
				</g>
			</g>
			<g>
				<g>
					<path class="st0" d="M63.4,388.8c10.7,8,27.7,9.8,39,2c0.7-0.5-0.1-1.2-0.7-0.9c-12.8,5.7-25.4,5.3-37.4-2.1
						C63.6,387.4,62.7,388.3,63.4,388.8L63.4,388.8z"/>
				</g>
			</g>
			<g>
				<g>
					<path class="st0" d="M68,388.2c10,7.7,25.9,9.1,37.4,4.2c0.7-0.3,0.3-1.2-0.4-1c-12.1,2.6-25.4,3.2-36-4.2
						C68.4,386.8,67.3,387.7,68,388.2L68,388.2z"/>
				</g>
			</g>
			<g>
				<g>
					<path class="st0" d="M68.1,389.4c1.4-5.7,10.8-6,15.3-7.5c0.6-0.2,0.2-0.8-0.3-0.8c-4.9,0.4-15.5,1.8-16.2,8.2
						C66.9,390,67.9,389.9,68.1,389.4L68.1,389.4z"/>
				</g>
			</g>
			<g>
				<g>
					<path class="st0" d="M66,385.1c3.9-0.5,7.9-0.9,11.6-2.2c0.5-0.2,0.2-0.8-0.2-0.7c-3.8,0.6-7.7,1.4-11.5,2
						C65.2,384.3,65.4,385.2,66,385.1L66,385.1z"/>
				</g>
			</g>
			<g>
				<g>
					<path class="st0" d="M89.3,381.4c3.1,0.8,6.3,1.3,9.4,2.2c3.9,1.2,6.7,3.4,9.3,6.5c0.3,0.4,1,0,0.8-0.5c-3.2-7.4-12.1-8-19-9.1
						C89.1,380.5,88.5,381.2,89.3,381.4L89.3,381.4z"/>
				</g>
			</g>
			<g>
				<g>
					<path class="st0" d="M91,382c4-0.1,6.5,3.3,9.7,5.1c0.4,0.2,1.1-0.1,0.8-0.6c-1.9-3.1-6.8-6.2-10.5-5.5
						C90.4,381.1,90.3,382,91,382L91,382z"/>
				</g>
			</g>
			<g>
				<g>
					<path class="st0" d="M60.3,389.4c0.3,1.2,0.7,2.4,1,3.7c0.5,1.7,0.9,3.4,0.7,5.1c0,0.3,0.2,0.6,0.5,0.7
						c2.1,0.5,5.5,1.6,7.4,0.2c0.3-0.2,0.2-0.7-0.1-0.7c-0.9-0.2-1.9,0-2.9-0.1c-1.3-0.1-2.6-0.4-3.8-0.7c0.2,0.2,0.3,0.5,0.5,0.7
						c0.2-1.9-0.2-3.7-0.8-5.5c-0.4-1.3-1.2-2.4-1.7-3.6C61,388.8,60.1,389,60.3,389.4L60.3,389.4z"/>
				</g>
			</g>
			<g>
				<g>
					<path class="st0" d="M62,390.5c0.4,0.6,0.5,1.9,0.7,2.6c0.3,1.4,0.4,2.8,0.8,4.1c0.1,0.4,0.7,0.3,0.8,0c0.5-2.2,0-5.4-1.7-7
						C62.4,390,61.7,390.2,62,390.5L62,390.5z"/>
				</g>
			</g>
			<g>
				<g>
					<path class="st0" d="M63.3,396.1c-1.1,4.5,22.2,6.7,25.4,5.7c0.5-0.2,0.4-0.9-0.2-0.9c-2.5,0.1-24.3-2.2-24-4.7
						C64.6,395.5,63.4,395.5,63.3,396.1L63.3,396.1z"/>
				</g>
			</g>
			<g>
				<g>
					<path class="st0" d="M74.2,402.9c8.2,1,19.7,2.5,27.1-2.3c0.4-0.3,0.1-0.9-0.4-0.8c-8.8,2.5-17.4,2.4-26.5,2
						C73.7,401.9,73.5,402.8,74.2,402.9L74.2,402.9z"/>
				</g>
			</g>
			<g>
				<g>
					<path class="st0" d="M93.8,402.8c4.6,3.2,9.7-4.6,11.3-8.1c0.2-0.6-0.6-0.7-0.9-0.4c-2,2.1-6.1,9.7-9.7,7.7
						C94,401.8,93.3,402.4,93.8,402.8L93.8,402.8z"/>
				</g>
			</g>
			<g>
				<g>
					<path class="st0" d="M105.5,388.5c-1.5,1.6-0.5,3.7,0.2,5.4c0.4,1,1,2.3,0.7,3.5c-0.5,2-3.2,2.1-4.7,2.8
						c-0.8,0.3-0.7,1.4,0.3,1.4c2.9,0,6.7-1.7,6.6-5c0-2.4-2.7-5.3-1.6-7.5C107.4,388.2,106,388,105.5,388.5L105.5,388.5z"/>
				</g>
			</g>
			<g>
				<g>
					<path class="st0" d="M107.3,397.6c-1.2,2.1-3.2,3.1-5.1,4.5c-0.5,0.4,0.1,0.9,0.5,0.7c2.3-0.8,4.4-2.8,5.5-5
						C108.5,397.3,107.5,397.1,107.3,397.6L107.3,397.6z"/>
				</g>
			</g>
			<g>
				<g>
					<path class="st0" d="M63.7,396.6c-0.6,2.5-0.2,5.3,0.9,7.6c0.9,1.8,3.6,4.1,5.7,2.9c0.4-0.2,0.6-0.7,0.1-1
						c-0.8-0.6-1.9-0.5-2.7-1.1c-0.8-0.6-1.5-1.5-1.9-2.4c-0.9-1.8-0.9-4-0.9-6C65.1,395.9,63.9,395.9,63.7,396.6L63.7,396.6z"/>
				</g>
			</g>
			<g>
				<g>
					<path class="st0" d="M63.6,405.4c0.6,1.3,4.1,1.9,5.2,2.2c2.9,0.9,6,2.2,9.1,2.2c0.6,0,1.1-0.7,0.5-1.1
						c-2.1-1.4-4.9-1.7-7.3-2.4c-1.3-0.4-2.7-0.7-4-1.1c-0.4-0.1-2.1-0.7-2-0.5C64.7,404,63.2,404.4,63.6,405.4L63.6,405.4z"/>
				</g>
			</g>
			<g>
				<g>
					<path class="st0" d="M105.5,398c-1.8,3.2,0.6,5.5,3.2,7.1c0.1-0.5,0.3-1,0.4-1.5c-1.9,0.6-3.9,1.2-5.8,1.9
						c-1.8,0.6-4.1,1-5.5,2.2c-0.5,0.4-0.2,1,0.3,1c1.8,0.2,3.6-0.8,5.2-1.4c2.1-0.8,4.1-1.5,6.2-2.2c0.7-0.2,0.8-1.1,0.2-1.4
						c-1.9-1.2-4.1-2.8-3.1-5.4C107.2,397.6,105.9,397.4,105.5,398L105.5,398z"/>
				</g>
			</g>
			<g>
				<g>
					<path class="st0" d="M105.7,402.9c-2.5,2.1-5.1,3.9-8.1,5.4c-2.5,1.3-5.2,2.1-7.5,3.5c-0.6,0.4,0,1.1,0.5,1
						c5.8-1,12.3-4.8,16.2-9.1C107.5,403.1,106.3,402.4,105.7,402.9L105.7,402.9z"/>
				</g>
			</g>
			<g>
				<g>
					<path class="st0" d="M64,405.8c1.8,2.1,1.6,5.1,2.7,7.6c1.2,2.6,3.9,3.9,6.7,3.5c0.5-0.1,0.6-0.7,0.1-0.8
						c-1.5-0.5-3.2-0.8-4.3-2c-0.9-1-1.3-2.3-1.6-3.5c-0.6-2.1-1-4.1-2.8-5.4C64.3,404.9,63.6,405.4,64,405.8L64,405.8z"/>
				</g>
			</g>
			<g>
				<g>
					<path class="st0" d="M67.5,413.8c1.8,1.9,4.1,3.1,6.3,4.5c1.2,0.8,2.4,1.6,3.4,2.6c1.1,1.1,1.5,2.5,2.3,3.7
						c0.3,0.4,1.1,0.3,1.1-0.2c0.8-5.6-8.8-8.5-12.1-11.4C68.1,412.6,67,413.2,67.5,413.8L67.5,413.8z"/>
				</g>
			</g>
			<g>
				<g>
					<path class="st0" d="M81.2,423.8c-0.1,0-0.1,0-0.2,0c-0.5,0-1.1,0.5-0.6,1c0.8,0.9,4,0.5,5.1,0.5c2,0,6.1,0.5,7.6-1.2
						c0.2-0.3,0.1-0.6-0.2-0.7c-2.1-0.5-4.7,0.3-6.9,0.3c-1.2,0-2.3-0.1-3.5,0c-0.3,0-0.7,0-1.1,0.1c-0.3,0.1-0.5-0.3,0.1,0.2
						c-0.1,0.3-0.3,0.7-0.4,1c0.1,0,0.1,0,0.2,0C82,424.9,82,423.8,81.2,423.8L81.2,423.8z"/>
				</g>
			</g>
			<g>
				<g>
					<path class="st0" d="M94.9,423c1.2-3.2,3.7-5.3,5.9-7.8c0.4-0.5-0.4-0.8-0.7-0.5c-3,1.8-5.5,4.6-6.7,7.9
						C93.1,423.5,94.6,423.8,94.9,423L94.9,423z"/>
				</g>
			</g>
			<g>
				<g>
					<path class="st0" d="M96.7,419.4c2.9-3.5,7.5-4.8,10.6-8c0.8-0.9,2.3-2.6,2.2-3.9c-0.1-1.4-2.2-2.8-3.3-3.6
						c-0.7-0.5-1.8,0.6-1,1.1c0.5,0.3,2.3,1.5,2.6,2.1c0.6,0.1,0.6,0.4,0.2,0.9c-0.2,0.6-0.5,1.1-0.9,1.6c-1,1.4-2.6,2.5-4,3.4
						c-2.6,1.7-5.5,3.1-7.2,5.8C95.4,419.5,96.4,419.7,96.7,419.4L96.7,419.4z"/>
				</g>
			</g>
			<g>
				<g>
					<path class="st0" d="M107,403.4c0,1.4,0,2.9-0.3,4.3c-0.3,1.5-1.2,2.5-1.7,3.9c-0.2,0.5,0.4,0.8,0.8,0.6
						c2.9-1.4,2.6-6.1,2.6-8.8C108.5,402.7,107,402.7,107,403.4L107,403.4z"/>
				</g>
			</g>
			<g>
				<g>
					<path class="st0" d="M63.3,406.4c4.8,0.3,9.4,3.1,14,4.3c0.4,0.1,1-0.4,0.5-0.7c-4.2-2.1-9.6-4-14.3-4.1
						C63,405.8,62.9,406.3,63.3,406.4L63.3,406.4z"/>
				</g>
			</g>
			<g>
				<g>
					<path class="st0" d="M65,407.4c1.7,1.5,4.3,2.2,6.5,2.7c2.8,0.7,5.7,1.3,8.6,1c0.5-0.1,0.5-0.7,0-0.8c-4.8-0.7-10-1.4-14.4-3.6
						C65.4,406.5,64.6,407,65,407.4L65,407.4z"/>
				</g>
			</g>
			<g>
				<g>
					<path class="st0" d="M62.5,398.7c4.1,2.5,9.7,3.3,14.4,3.1c0.5,0,0.7-0.7,0.1-0.7c-4.5-0.3-9.7-1.1-13.8-3.2
						C62.6,397.5,61.8,398.3,62.5,398.7L62.5,398.7z"/>
				</g>
			</g>
			<g>
				<g>
					<path class="st0" d="M61.7,388.2c3.2,3.2,8.1,5.6,12.4,6.8c0.5,0.1,1.1-0.5,0.5-0.8c-3.9-2.1-8.3-3.9-11.7-6.9
						C62.3,386.8,61,387.5,61.7,388.2L61.7,388.2z"/>
				</g>
			</g>
			<g>
				<g>
					<path class="st0" d="M77.9,384.6c3.1,3,7.9,5,12.2,4.2c0.5-0.1,0.7-0.8,0.1-0.9c-4.2-0.9-7.8-1.1-11.1-4.2
						C78.5,383.1,77.2,383.9,77.9,384.6L77.9,384.6z"/>
				</g>
			</g>
			<g>
				<g>
					<path class="st0" d="M83,386.9c-1.3,0.5-2.7,0.7-3.9,1.5c-0.6,0.4-0.1,1.2,0.6,1c3.6-0.8,7.1-1.4,10.8-1.4c1,0,1.3-1.4,0.2-1.4
						c-2.6,0-5.1,0-7.6-0.5c0,0.4,0,0.9,0,1.3c2.1-0.7,4.3-0.9,6.5-1.3c0.5-0.1,0.5-0.7,0-0.8c-2.4-0.4-4.9,0.1-7.2,0.8
						c-0.6,0.2-0.7,1.2,0,1.3c2.7,0.5,5.3,0.6,8.1,0.6c0.1-0.5,0.1-0.9,0.2-1.4c-3.9,0-7.7,0.6-11.4,1.7c0.3,0.3,0.6,0.6,0.9,0.9
						c0.9-0.9,2.2-1,3.3-1.5C84,387.4,83.6,386.7,83,386.9L83,386.9z"/>
				</g>
			</g>
			<g>
				<g>
					<path class="st0" d="M90,380.9c2.4,2.4,5.6,3.5,9,3.1c0.5-0.1,0.5-0.7,0-0.8c-2.9-0.5-5.7-1.1-7.9-3.1
						C90.5,379.6,89.4,380.3,90,380.9L90,380.9z"/>
				</g>
			</g>
			<g>
				<g>
					<path class="st0" d="M78.4,380.3c-3.2,0.9-7.6,1.7-10.2,3.9c-0.4,0.4-0.1,1,0.5,0.9c1.6-0.4,3.2-1.2,4.7-1.8
						c1.8-0.7,3.6-1.2,5.4-1.8C79.7,381.3,79.2,380.1,78.4,380.3L78.4,380.3z"/>
				</g>
			</g>
			<g>
				<g>
					<path class="st0" d="M36.1,287.9c-2.7,1.3,0-3.3,0.2-3.7c0.9-1.6,1.8-3.2,2.9-4.7c1.9-2.7,4.1-5.2,6.4-7.6
						c5.1-5.3,10.8-9.7,16.4-14.3c0.3-0.3-0.1-0.6-0.4-0.4c-10.8,7-24.4,18.6-27.8,31.5c0,0.2,0.2,0.2,0.3,0.2
						c1.4-0.2,0.8,0,2.1-0.7C36.5,288.1,36.3,287.8,36.1,287.9L36.1,287.9z"/>
				</g>
			</g>
			<g>
				<g>
					<path class="st0" d="M61.6,251.8c-3.7,2.4-5.2,7.4-6.4,11.4c-1.7,5.6-3.3,11.3-4.8,16.9c-0.1,0.4,0.5,0.4,0.7,0.1
						c5-8.9,3.4-20.3,10.8-28.2C62.2,251.8,61.8,251.7,61.6,251.8L61.6,251.8z"/>
				</g>
			</g>
			<g>
				<g>
					<path class="st0" d="M35.8,283.9c0.1-0.1,0.2-0.2,0.3-0.2c0.1-0.1,0.1-0.3-0.1-0.3c-1.1-0.4-2.4,0.6-3.2,1.2
						c-0.4,0.3,0.1,0.7,0.4,0.6c6.9-2.3,13.7-1.5,20.8-2.2c0.3,0,0.3-0.4,0-0.5c-3.5-0.4-7.1-0.3-10.6-0.1c-2,0.1-4,0.3-6,0.8
						c-0.5,0.1-1.1,0.2-1.6,0.4c-1.9,0.5-2,0.6-0.3,0.1C35.3,283.9,35.6,284.1,35.8,283.9L35.8,283.9z"/>
				</g>
			</g>
			<g>
				<g>
					<path class="st0" d="M36.5,281.3c2.3-4.5,5.4-8.3,8.8-12c0.2-0.2-0.2-0.3-0.3-0.2c-3.6,3.5-6.7,7.5-9,12
						C35.7,281.4,36.3,281.6,36.5,281.3L36.5,281.3z"/>
				</g>
			</g>
			<g>
				<g>
					<path class="st0" d="M56,260.2c-2.8,2.5-5.4,5.2-7.9,8c-2.7,3-6.3,6.2-8.5,9.6c-1.9,3,1.1-0.3,2.1-1.3c1.8-1.8,3.7-3.5,5.6-5.1
						c0.3-0.2,5-4.5,5.3-4.3c-0.7-0.4-3.5,3.3-3.9,3.8c-1.3,1.5-2.6,2.9-4,4.3c-0.7,0.7-5,5-3,2.7c2.8-3.1,6-5.7,9.5-8.1
						c0.9-0.6,3.3-2.4,3.5-2.4c-1.3,0.7-2.6,2.1-3.8,3.2c-3.8,3.7-7.6,7.4-11.7,10.8c0.2,0.2,0.4,0.4,0.6,0.6
						c1.9-1.6,3.8-3.1,5.9-4.4c0.8-0.5,6.1-3,6.2-3.7c0-0.1-3,2.5-3.4,3c-1.8,1.9-3.6,3.7-5.3,5.7c-0.3,0.4,0.2,0.8,0.6,0.6
						c3.1-1.6,5.8-3.6,8.4-5.9c0.3-0.3-0.1-0.6-0.4-0.4c-1.6,1.1-3.2,2.2-4.7,3.4c-0.7,0.6-3.3,3.1-1,0.4c2.3-2.6,4.8-5.1,7.3-7.6
						c0.3-0.3-0.2-0.7-0.5-0.5c-4.8,2.6-9.5,5.3-13.7,8.9c-0.5,0.4,0.2,1,0.6,0.6c5.6-4.8,10.7-10.2,16.1-15.2
						c0.4-0.4-0.1-0.7-0.5-0.5c-5.8,3.5-12,7.3-15.8,13.1c-0.3,0.4,0.3,0.7,0.6,0.4c5.2-3.9,9.1-9.1,13.6-13.7
						c0.2-0.2-0.2-0.5-0.4-0.3c-5.5,4.5-11.2,8.6-15.8,14.1c-0.4,0.4,0.4,0.7,0.7,0.4c6.2-6.5,11.2-14,18-20
						C56.2,260.3,56.1,260.2,56,260.2L56,260.2z"/>
				</g>
			</g>
			<g>
				<g>
					<path class="st0" d="M34.8,294.7c-3.4,5.4-1.1,12.5,1.2,18c2.8,6.7,6.6,13.1,11,18.8c0.1,0.2,0.5,0,0.4-0.2
						c-3.4-5.2-6.7-10.4-9.4-16c-2.8-5.9-6.3-14.2-2.5-20.4C35.6,294.5,35,294.4,34.8,294.7L34.8,294.7z"/>
				</g>
			</g>
			<g>
				<g>
					<path class="st0" d="M35.4,294.2c-2.2,7.9,2.1,16.9,5.4,23.9c4.2,8.7,9.2,16.9,13.9,25.3c0.1,0.2,0.5,0.1,0.4-0.2
						c-3.7-7.9-8.6-15.2-12.5-23c-3.8-7.6-8.9-17.2-6.9-26C35.9,294,35.5,294,35.4,294.2L35.4,294.2z"/>
				</g>
			</g>
			<g>
				<g>
					<path class="st0" d="M39.1,312c-1.2,2.4,3.1,7,4.3,8.7c2.8,4,6.2,7.7,8.8,11.8c0.1,0.2,0.6,0.1,0.4-0.2c-2-3.5-4.6-6.6-7-9.7
						c-1.3-1.7-7.2-8.1-6.1-10.5C39.7,311.8,39.2,311.7,39.1,312L39.1,312z"/>
				</g>
			</g>
			<g>
				<g>
					<path class="st0" d="M107.2,352c4.4-5.4,9.6-9.9,14-15.2c0.3-0.4-0.3-0.6-0.6-0.3c-4.9,4.9-9.9,9.7-14.3,15.1
						C105.8,352,106.8,352.5,107.2,352L107.2,352z"/>
				</g>
			</g>
			<g>
				<g>
					<path class="st0" d="M127.2,329c-6.7,7.5-10.9,17-18.8,23.3c-0.7,0.5,0.2,1.3,0.8,0.8c3.3-2.6,6.3-5.5,9.1-8.6
						c1.5-1.6,3-3.3,4.4-4.9c0.9-1.1,4.6-4.1,4.4-5.5c0.1,1-3.4,4.7-4.1,5.7c-1,1.5-1.9,3-2.8,4.5c-3,4.9-6.2,9.5-9.8,14
						c-0.4,0.4,0.4,0.7,0.7,0.4c7.3-7.1,12.1-17.2,17.7-25.7c0.2-0.3-0.3-0.5-0.5-0.3c-6.7,6.5-12.8,13.7-20,19.6
						c0.3,0.3,0.5,0.5,0.8,0.8c7.7-6.8,12.1-16.1,18.8-23.7C128.4,329,127.6,328.6,127.2,329L127.2,329z"/>
				</g>
			</g>
			<g>
				<g>
					<path class="st0" d="M83.7,385.1c-0.4-11.4-2.4-22.8-4.8-33.9c-0.1-0.4-0.8-0.3-0.8,0.1c1.8,11.3,2.9,22.7,4.6,34
						C82.8,385.8,83.7,385.6,83.7,385.1L83.7,385.1z"/>
				</g>
			</g>
			<g>
				<g>
					<path class="st0" d="M88.5,385.8c-0.1,0,3.5-16,4-17.7c3.1-11.6,6.6-22.8,9-34.5c0.8-3.9,2.5-12-4.2-11.2
						c-5.5,0.6-8.8,8.6-7.5,13.3c0.1,0.5,0.8,0.6,1.2,0.3c5.4-3.9,4.2-13.4-2.8-14.6c-0.4-0.1-0.9,0.1-1,0.5
						c-0.6,4-0.8,7.3,0.5,11.1c0.2,0.6,1.4,0.7,1.5-0.1c0.4-5.2-0.7-11.1-4.9-14.6c-0.4-0.3-1.1-0.3-1.3,0.2
						c-1.6,4.4-1.8,9.7,0,14.1c0.3,0.6,1.3,0.3,1.4-0.3c0.8-3.5-1.8-16.2-7.8-11.8c-3.1,2.2-2.1,8.5-1.7,11.5
						c0.7,6.3,1.9,12.8,4,18.8c0.2,0.6,1.5,0.3,1.4-0.4c-2-7-3.7-14.2-4-21.5c-0.1-2.6,0.5-10.8,4.8-6.4c2.4,2.5,2.8,6.4,2,9.7
						c0.5-0.1,1-0.2,1.4-0.3c-1.7-4-1.5-9,0-13.1c-0.4,0.1-0.8,0.1-1.3,0.2c3.9,3.3,4.9,8.8,4.5,13.7c0.5,0,1-0.1,1.5-0.1
						c-0.6-1.9-2.4-7.5-0.8-9c0.1-0.4,0.2-0.7,0.3-1.1c1.4,0.4,2.5,1.3,3.2,2.6c2,3.2,1.2,7.6-1.8,9.8c0.4,0.1,0.8,0.2,1.2,0.3
						c-0.7-2.7,0.6-9.8,3.9-10.8c1.9,0.5,3.8,1.1,5.7,1.6c0,0.6,0.1,1.2,0.1,1.8c0.1,0.7-0.2,1.5-0.3,2.2c-0.2,1.4-0.6,2.9-0.9,4.3
						c-1.9,9.6-4.5,18.9-7.2,28.3c-0.7,2.3-6.9,23.6-4.3,23.7C88.9,386.6,89.1,385.9,88.5,385.8L88.5,385.8z"/>
				</g>
			</g>
			<g>
				<g>
					<path class="st0" d="M32.8,274.7c0.8-5,4.9-9.2,8.4-12.5c3.5-3.3,7.3-6.1,11.1-9.1c0.1-0.1,0-0.2-0.2-0.2
						c-4.1,3.1-8.3,6.2-12,9.8c-3.3,3.2-7,7.2-7.6,12C32.5,274.9,32.8,274.9,32.8,274.7L32.8,274.7z"/>
				</g>
			</g>
			<g>
				<g>
					<path class="st0" d="M59.3,248.2c-5.6,2.2-9.9,7.1-14.3,10.9c-4.7,4.1-8.3,9.1-11.1,14.7c-0.1,0.1,0.2,0.2,0.2,0.1
						c3.2-5.6,6.8-10.7,11.7-14.9c4.3-3.7,8.1-8.4,13.5-10.5C59.5,248.3,59.4,248.1,59.3,248.2L59.3,248.2z"/>
				</g>
			</g>
			<g>
				<g>
					<path class="st0" d="M33.6,274.7c3.6-7.8,11.4-12.9,17.8-18.2c0.1-0.1,0-0.3-0.2-0.2c-6.6,5.3-14.3,10.3-17.8,18.3
						C33.5,274.8,33.6,274.8,33.6,274.7L33.6,274.7z"/>
				</g>
			</g>
			<g>
				<g>
					<path class="st0" d="M32.6,284.9c-0.6,0.6-0.5,2.6-0.5,3.3c-0.3,3-0.5,6-0.7,9c-0.2,3.3-0.5,6.6-0.7,10c-0.1,2-0.5,4.2-0.2,6.1
						c0,0.2,0.3,0.1,0.3,0c0.3-1.9,0.3-3.9,0.4-5.8c0.2-3.1,0.4-6.3,0.6-9.4c0.2-2.9,0.4-5.8,0.7-8.6c0.1-1.1-0.2-3.3,0.3-4.4
						C32.9,284.9,32.7,284.8,32.6,284.9L32.6,284.9z"/>
				</g>
			</g>
			<g>
				<g>
					<path class="st0" d="M33.7,290.8c-2.9,1.9-0.8,8.7-0.7,11.5c0.3,7.9,0,16.3,2.3,24c0,0.2,0.3,0.1,0.3-0.1
						c-1.4-6.8-1.8-13.5-2-20.4c-0.1-2.5-0.2-4.9-0.5-7.4c-0.2-2-1-5.9,0.8-7.4C34.1,290.9,33.8,290.7,33.7,290.8L33.7,290.8z"/>
				</g>
			</g>
			<g>
				<g>
					<path class="st0" d="M33.4,307.2c-0.3-0.1-0.6-0.2-0.9-0.2c-0.1,0-0.3,0-0.3,0.2c0.9,5.4,3.8,10.1,5.7,15.2
						c1.8,4.9,3.2,10.3,6.5,14.5c0.1,0.1,0.4,0,0.3-0.2c-2.8-4.6-4.5-9.5-6.3-14.5c-0.9-2.4-1.9-4.7-2.9-7c-0.6-1.3-1.2-2.7-1.7-4.1
						c-0.2-0.6-1.6-3.9-0.5-3.6C33.5,307.5,33.7,307.2,33.4,307.2L33.4,307.2z"/>
				</g>
			</g>
			<g>
				<g>
					<path class="st0" d="M35.3,311c-0.8,4.2,3,8.8,5,12.1c3.3,5.6,5.3,11.9,9.4,17.1c0,0.1,0.2,0,0.1-0.1
						c-3.6-5.2-5.8-11.1-8.9-16.5c-2-3.5-6.2-8.3-5.4-12.6C35.5,310.8,35.3,310.8,35.3,311L35.3,311z"/>
				</g>
			</g>
			<g>
				<g>
					<path class="st0" d="M34.8,310.7c-0.2-0.1-0.4-0.3-0.6-0.4c0,0-0.1,0-0.1,0c-0.5,1.2,2,4.5,2.6,5.6c1.7,2.9,3.6,5.6,5.4,8.4
						c3.6,5.8,6,12.2,9.5,18c0,0.1,0.2,0,0.1,0c-3.1-5.5-5.5-11.5-8.8-17c-1.5-2.5-3.1-4.8-4.7-7.2c-0.9-1.3-1.7-2.7-2.4-4.1
						c-0.3-0.6-0.7-1.3-1-1.9c-0.2-0.4-1.1-1.9-0.1-1.2C34.7,310.8,34.8,310.7,34.8,310.7L34.8,310.7z"/>
				</g>
			</g>
			<g>
				<g>
					<path class="st0" d="M38.6,306.6c0.5,0.4-3-2.4-1.6-1.2c0,0-0.2,0-0.1,0.1c6.5,10.5,12.1,21.6,19.6,31.5c0,0.1,0.2,0,0.1-0.1
						c-3.7-5.2-7-10.5-10.3-16c-1.5-2.6-3.1-5.2-4.6-7.8c-0.8-1.4-1.7-2.8-2.6-4.3C38.7,308,36.2,304.8,38.6,306.6
						C38.6,306.7,38.6,306.6,38.6,306.6L38.6,306.6z"/>
				</g>
			</g>
			<g>
				<g>
					<path class="st0" d="M31.5,303.5c-3.1-0.1,2.1-22.2,3.1-24.7c0.1-0.2-0.2-0.2-0.3-0.1c-1.3,2.7-6.8,24.9-2.8,25
						C31.7,303.8,31.8,303.5,31.5,303.5L31.5,303.5z"/>
				</g>
			</g>
			<g>
				<g>
					<path class="st0" d="M37.7,274.8c-1.2-0.6,6-8.5,6.8-9.4c5.8-6.2,12.4-11.5,19.8-15.6c0.1,0,0-0.1-0.1-0.1
						c-7.8,4.1-14.6,9.8-20.6,16.2c-0.8,0.8-7.7,8.2-6.2,9C37.7,275.1,37.9,274.9,37.7,274.8L37.7,274.8z"/>
				</g>
			</g>
			<g>
				<g>
					<path class="st0" d="M66.2,387.3c-1.5-0.6-1.3,6.9-1.4,7.8c0.2,0,0.3,0,0.5,0c-0.2-1.5-0.2-3-0.3-4.5c0-0.2-0.4-0.2-0.4,0
						c0,2.4-0.2,4.9,0.3,7.3c0,0.2,0.3,0.2,0.3,0c0.1-0.3,0.2-0.6,0.4-0.9c0.1-0.1-0.1-0.1-0.2-0.1c-0.6,1-0.4-0.7-0.4-1.2
						c-0.1-1.1,0.2-2.6,0-3.6c-0.3-1.1-0.2-1-0.4,0.1c-0.2,0.9,0.1,2.1,0.2,3c0,0.2,0.4,0.2,0.5,0c0.1-0.7,0.3-7.9,0.9-7.7
						C66.3,387.5,66.4,387.3,66.2,387.3L66.2,387.3z"/>
				</g>
			</g>
			<g>
				<g>
					<path class="st0" d="M65.8,393.1c0-0.5,0-0.9,0.3-1.3c-0.1,0-0.2,0-0.2,0c0.4,1.7,0,3.6,0.2,5.3c0,0.1,0.2,0.1,0.2,0
						c0-0.1,0-0.2,0-0.3c0-0.1-0.2-0.1-0.2,0c0,0.1,0,0.2,0,0.3c0.1,0,0.1,0,0.2,0c0-1.7,0.3-3.7-0.2-5.3c0-0.1-0.2-0.1-0.2,0
						c-0.1,0.5-0.2,0.9-0.2,1.4C65.6,393.1,65.8,393.1,65.8,393.1L65.8,393.1z"/>
				</g>
			</g>
			<g>
				<g>
					<path class="st0" d="M66,391.9c0.6-0.5,1.3,2.2,1.4,2.5c0.3,0.9,0.5,1.8,1,2.5c0,0.1,0.2,0,0.1-0.1c-0.7-1.2-1-2.7-1.5-4
						C66.9,392.5,66.5,391.4,66,391.9C65.9,391.9,65.9,392,66,391.9L66,391.9z"/>
				</g>
			</g>
			<g>
				<g>
					<path class="st0" d="M65.1,392.8c0,0.6,2.5,1.1,2.9,1.2c1.9,0.6,4,1.3,6,1.4c0.1,0,0.2-0.2,0.1-0.2c-1.5-0.3-3.1-0.7-4.6-1.1
						c-0.4-0.1-3.9-1-3.9-1.2C65.5,392.6,65.1,392.6,65.1,392.8L65.1,392.8z"/>
				</g>
			</g>
			<g>
				<g>
					<path class="st0" d="M63.9,393.3c-0.2,1,1.7,1.1,2.3,1.1c2.7,0.5,5.2,1.1,7.9,1.2c0.1,0,0.2-0.2,0-0.2
						c-0.6-0.1-10.1-1.4-9.9-2.2C64.4,393.1,64,393.1,63.9,393.3L63.9,393.3z"/>
				</g>
			</g>
			<g>
				<g>
					<path class="st0" d="M67,400.2c-0.2-0.2-0.2-0.4-0.5-0.5c-0.1,0-0.4,0-0.4,0.2c-0.1,1.2,2.1,2.8,2.9,3.5
						c1.5,1.2,3.1,2.3,4.8,3.2c0.1,0.1,0.3-0.1,0.2-0.2c-1.3-1-2.7-1.9-4-2.9c-0.6-0.4-1.1-0.9-1.6-1.4c-0.4-0.4-1.8-1.6-1.7-2.2
						c-0.1,0.1-0.2,0.1-0.4,0.2c0,0,0.3,0.4,0.4,0.4C66.9,400.7,67.3,400.3,67,400.2L67,400.2z"/>
				</g>
			</g>
			<g>
				<g>
					<path class="st0" d="M66.6,401.7c0,1.1,2,1.6,2.8,1.9c1.8,0.6,3.9,1.3,5.9,1.2c0.2,0,0.2-0.2,0-0.2c-1.4-0.1-2.9-0.5-4.3-0.9
						c-0.7-0.2-4-0.9-4-1.9C67.1,401.5,66.6,401.5,66.6,401.7L66.6,401.7z"/>
				</g>
			</g>
			<g>
				<g>
					<path class="st0" d="M72.7,401.8c-0.9-0.4-1.8-0.7-2.8-0.9c-0.3-0.1-0.5,0.2-0.3,0.4c1.3,1,2.9,1.2,4.5,1.1
						c0.2,0,0.2-0.3,0-0.3c-1.5-0.1-2.9-0.3-4.2-1.2c-0.1,0.1-0.2,0.3-0.3,0.4c0.9,0.2,1.8,0.5,2.7,0.9
						C72.7,402.3,73,401.9,72.7,401.8L72.7,401.8z"/>
				</g>
			</g>
			<g>
				<g>
					<path class="st0" d="M69.8,387.4c-0.1,0.1-0.3,0.2-0.4,0.4c-0.1,0.1-0.1,0.2-0.1,0.3c0.1,1.1,2.6,1.8,3.5,2.3
						c2.1,0.9,4.2,1.6,6.5,2c4.3,0.9,8.6,1,12.9,0.4c0.2,0,0.1-0.3,0-0.2c-4.2,0.3-8.5,0.2-12.7-0.6c-1.9-0.4-3.8-1-5.6-1.7
						c-0.8-0.3-4.4-1.6-3.5-2.4C70.6,387.4,70,387.2,69.8,387.4L69.8,387.4z"/>
				</g>
			</g>
			<g>
				<g>
					<path class="st0" d="M72.3,388.5c-0.4,0.1-0.8,0.1-1.1,0.2c-0.2,0-0.2,0.3,0,0.4c7.6,0.8,14.9,4.2,22.6,2
						c0.2-0.1,0.2-0.3,0-0.3c-4.4,1-8.6,0.6-12.9-0.3c-1.8-0.4-3.6-0.8-5.3-1.2c-0.6-0.1-1.2-0.2-1.7-0.3c-0.5-0.1-2.8,0.1-1.4-0.2
						C72.6,388.8,72.6,388.5,72.3,388.5L72.3,388.5z"/>
				</g>
			</g>
			<g>
				<g>
					<path class="st0" d="M89,382.8c5.6,0.5,9.7,6.7,7.9,12.1c0,0.1,0.2,0.2,0.2,0.1c2.4-5.6-2.3-12.1-8.1-12.6
						C88.7,382.3,88.6,382.7,89,382.8L89,382.8z"/>
				</g>
			</g>
			<g>
				<g>
					<path class="st0" d="M91.2,382.6c3.7,1,7.9,4.1,9.5,7.6c0.1,0.1,0.3,0.1,0.3-0.1c-0.9-3.8-6.1-7-9.6-7.9
						C91.1,382,90.8,382.5,91.2,382.6L91.2,382.6z"/>
				</g>
			</g>
			<g>
				<g>
					<path class="st0" d="M94.9,382.1c3.5,0.3,7,3.2,7.2,6.9c0,0.1,0.3,0.1,0.3,0c0.4-4-3.8-6.9-7.4-7.3
						C94.6,381.6,94.6,382.1,94.9,382.1L94.9,382.1z"/>
				</g>
			</g>
			<g>
				<g>
					<path class="st0" d="M104.9,383.8c-1.3-2.5-4.9-3-7.5-3c-0.2,0-0.3,0.3-0.1,0.3c2.5,0.4,5.7,0.5,7.2,2.9
						C104.6,384.2,105.1,384.1,104.9,383.8L104.9,383.8z"/>
				</g>
			</g>
			<g>
				<g>
					<path class="st0" d="M50.7,336.5c-0.2,2.2,2.5,4.7,3.8,6.2c2.1,2.3,4.4,4.6,7,6.5c0.1,0.1,0.3-0.1,0.2-0.2
						c-1.9-1.8-3.9-3.6-5.8-5.5c-1.5-1.6-5-4.5-4.9-6.9C51.1,336.3,50.7,336.3,50.7,336.5L50.7,336.5z"/>
				</g>
			</g>
			<g>
				<g>
					<path class="st0" d="M51.1,332.2c-0.2-0.1-0.3-0.3-0.5-0.4c-0.1-0.1-0.5,0-0.5,0.2c0.1,0.6,0.7,1,1.1,1.4
						c0.9,1,1.8,2.1,2.7,3.1c1.7,2,3.4,4.1,5.3,6c0.1,0.1,0.4,0,0.3-0.2c-1.4-1.8-2.9-3.5-4.4-5.3c-0.7-0.8-1.3-1.5-2-2.3
						c-0.6-0.7-2.3-2-2.5-2.9c-0.2,0.1-0.3,0.1-0.5,0.2c0.2,0.2,0.3,0.4,0.6,0.5C51,332.7,51.3,332.4,51.1,332.2L51.1,332.2z"/>
				</g>
			</g>
			<g>
				<g>
					<path class="st0" d="M51.8,327.7c1.7,3.3,4.6,5.8,7.2,8.4c0.1,0.1,0.5,0,0.3-0.2c-2.4-2.8-5.2-5.2-7-8.4
						C52.2,327.2,51.6,327.4,51.8,327.7L51.8,327.7z"/>
				</g>
			</g>
			<g>
				<g>
					<path class="st0" d="M54.1,349.4c1.3-0.1,3.2,1.9,4.1,2.6c1.7,1.5,2.5,3.6,3,5.8c1,4,0.6,8.2,1.4,12.2c0,0.2,0.4,0.1,0.3-0.1
						c-0.5-5.1,0-10.8-2.4-15.5c-0.8-1.6-2-2.7-3.5-3.8c-0.8-0.5-2-1.6-3-1.5C53.9,349.1,53.9,349.4,54.1,349.4L54.1,349.4z"/>
				</g>
			</g>
			<g>
				<g>
					<path class="st0" d="M61.9,358.7c3.2,7.1,2.4,15.2,3.7,22.8c0,0.2,0.3,0.1,0.3-0.1c-0.6-7.3-0.1-16.2-3.6-22.9
						C62.2,358.4,61.8,358.5,61.9,358.7L61.9,358.7z"/>
				</g>
			</g>
			<g>
				<g>
					<path class="st0" d="M106,386c0.2-6.9,2.1-13.6,2.7-20.5c0-0.2-0.3-0.2-0.3,0c-1,6.8-2.8,13.6-2.8,20.5
						C105.7,386.2,106,386.2,106,386L106,386z"/>
				</g>
			</g>
			<g>
				<g>
					<path class="st0" d="M110.3,356.7c-2.3,2.3-2.7,5.9-3.4,9c-1,5-3.1,9.8-4.1,14.8c0,0.1,0.2,0.1,0.2,0c1.2-4.6,3.1-9,4.1-13.6
						c0.8-3.3,1-7.4,3.5-10C110.8,356.7,110.4,356.5,110.3,356.7L110.3,356.7z"/>
				</g>
			</g>
			<g>
				<g>
					<path class="st0" d="M103,381.7c1.5-9.2,3.6-18.5,9.1-26.2c0.1-0.2-0.1-0.3-0.2-0.1c-6.2,7.2-7.8,17.2-9.1,26.3
						C102.7,381.8,103,381.8,103,381.7L103,381.7z"/>
				</g>
			</g>
			<g>
				<g>
					<path class="st0" d="M113.6,353.1c-0.9,0.2-1.4,0.5-1.8,1.3c-1,1.9-1.9,4-2.5,6.1c-1.4,4.2-2.3,8.7-3.5,13c0,0.1,0.2,0.1,0.2,0
						c1.1-3.2,1.8-6.6,2.6-9.8c0.5-1.9,1.1-3.8,1.9-5.7C111.1,356.5,111.9,353.6,113.6,353.1C113.7,353.2,113.7,353.1,113.6,353.1
						L113.6,353.1z"/>
				</g>
			</g>
			<g>
				<g>
					<path class="st0" d="M111.2,365.4c-1.8,1.1-1.1-1.4-0.9-2.3c0.3-1.3,0.7-2.6,1.2-3.8c0.9-2.3,2.1-4.5,3.3-6.6
						c2.3-4,4.9-7.8,7-11.8c0.1-0.1-0.2-0.2-0.2-0.1c-4.6,7.8-11.5,15.9-12.1,25.3c0,0.1,0.1,0.2,0.2,0.1c0.7-0.1,1.1-0.4,1.7-0.7
						C111.6,365.4,111.4,365.3,111.2,365.4L111.2,365.4z"/>
				</g>
			</g>
			<g>
				<g>
					<path class="st0" d="M119,346.5c-1,1.6,0.8-0.3,1.1-0.6c0.8-0.8,1.6-1.7,2.3-2.5c1.3-1.5,2.7-3,4-4.6c2.5-3.1,4.7-6.3,6.3-10
						c0.1-0.1-0.2-0.2-0.2-0.1c-3.5,7.2-9.2,12.9-14.4,18.9c-0.1,0.2,0.1,0.3,0.3,0.1c0.7-0.7,0.4-0.4,0.9-1.2
						C119.3,346.4,119,346.3,119,346.5L119,346.5z"/>
				</g>
			</g>
			<g>
				<g>
					<path class="st0" d="M108.2,364.7c-2.6,6.5-3.2,14.3-3.9,21.2c0,0.2,0.3,0.2,0.4,0c1.6-7,1.9-14.2,3.9-21.2
						C108.6,364.6,108.3,364.6,108.2,364.7L108.2,364.7z"/>
				</g>
			</g>
			<g>
				<g>
					<path class="st0" d="M105.3,382c-1.8,1.9-1.5,5-1.4,7.4c0.2,3.7,0.5,7-0.5,10.6c-0.1,0.2,0.3,0.2,0.4,0.1
						c1.5-2,1.1-5.3,0.9-7.7c-0.2-3.2-1.2-7.5,0.9-10.4C105.7,382,105.4,381.9,105.3,382L105.3,382z"/>
				</g>
			</g>
			<g>
				<g>
					<path class="st0" d="M104.5,391.7c-0.4,3.7,0.8,7.3-3.2,9.2c-0.2,0.1,0,0.3,0.1,0.2c4.4-1.3,3.2-5.9,3.6-9.5
						C105,391.4,104.5,391.4,104.5,391.7L104.5,391.7z"/>
				</g>
			</g>
			<g>
				<g>
					<path class="st0" d="M104.1,397.5c-3.7,2.7-8,2.8-12.4,3c-0.2,0-0.2,0.2,0,0.2c4.4,0.2,9-0.2,12.7-3
						C104.6,397.6,104.3,397.3,104.1,397.5L104.1,397.5z"/>
				</g>
			</g>
			<g>
				<g>
					<path class="st0" d="M87.3,412.4c5.2,1.1,10.5-4.1,13.9-7.4c0.1-0.1-0.1-0.2-0.2-0.1c-3.4,3-8.6,8.2-13.5,7.2
						C87.2,412,87,412.3,87.3,412.4L87.3,412.4z"/>
				</g>
			</g>
			<g>
				<g>
					<path class="st0" d="M105,400.7c-5,4.8-11,8.5-17.6,10.4c-0.3,0.1-0.2,0.4,0.1,0.4c6.8-1.3,13.1-5.8,17.9-10.6
						C105.6,400.7,105.2,400.5,105,400.7L105,400.7z"/>
				</g>
			</g>
			<g>
				<g>
					<path class="st0" d="M107.5,402.9c-2.2,1.9-0.2,4.7-1.9,6.8c-0.9,1-2.2,1.3-3.3,2.1c-0.7,0.6-1.4,1.3-2,2
						c-3.4,4-5.3,8.8-10.4,10.8c-0.2,0.1-0.1,0.3,0.1,0.3c4.6,0.1,7.5-6,9.7-9.1c0.7-1,1.5-2,2.4-2.9c1.1-1,2.4-1.4,3.6-2.3
						c2.5-2,0.2-5.6,2.3-7.4C108.2,403,107.8,402.7,107.5,402.9L107.5,402.9z"/>
				</g>
			</g>
			<g>
				<g>
					<path class="st0" d="M70.4,409.8c-0.5-0.4-0.6-0.6-1.2-0.7c-0.1,0-0.3,0.1-0.2,0.2c2.8,4.8,8.7,7.3,13.1,10.5
						c0.1,0.1,0.3-0.1,0.2-0.2c-2-1.7-4.2-3-6.4-4.5c-1.4-0.9-2.7-1.9-4-3c-0.5-0.4-1-0.9-1.4-1.4c-0.4-0.5-1.5-1.7-0.4-0.8
						C70.3,410.1,70.5,410,70.4,409.8L70.4,409.8z"/>
				</g>
			</g>
			<g>
				<g>
					<path class="st0" d="M81.3,356c-2.9-1.6-1.4-5.3-1.6-7.9c0-0.1-0.3-0.1-0.3,0c-0.2,2.7-1.4,6.6,1.6,8.1
						C81.3,356.3,81.5,356.1,81.3,356L81.3,356z"/>
				</g>
			</g>
			<g>
				<g>
					<path class="st0" d="M79,347.9c1.2,6.4,2.1,12.7,2.8,19.1c0.6,5.9,1,12.6,3.3,18.1c0.1,0.2,0.4,0.1,0.4-0.1
						c-0.5-3.1-1.4-6-1.9-9.1c-0.5-3.1-0.9-6.2-1.2-9.4c-0.7-6.2-1.1-12.7-3-18.6C79.3,347.7,79,347.8,79,347.9L79,347.9z"/>
				</g>
			</g>
			<g>
				<g>
					<path class="st0" d="M82.3,382.3c0.8-0.8,2.1-1.2,3.2-1.5c1.4-0.3,2.9-0.5,3.3,1.1c0,0.1,0.3,0.1,0.3,0
						c0.6-3.5-6.1-0.9-7.2,0.1C81.7,382.2,82.1,382.4,82.3,382.3L82.3,382.3z"/>
				</g>
			</g>
			<g>
				<g>
					<path class="st0" d="M88.1,381.5C88.1,381.5,88.1,381.4,88.1,381.5C88,381.4,88,381.5,88.1,381.5L88.1,381.5z"/>
				</g>
			</g>
			<g>
				<g>
					<path class="st0" d="M87.2,380.9c-1.9-0.4-3.6-0.7-5.4,0.1c-0.3,0.1-0.1,0.4,0.1,0.4c1.1-0.1,2.1-0.3,3.1-0.4
						c0.7-0.1,1.4-0.1,2.1,0c2,0.2,0.3,0.9-0.5,1.1c-2,0.6-4.1,0.4-6.2,0.7c0.1,0.1,0.1,0.3,0.2,0.4c2.4-2.1,5.5-2,8.5-1.8
						c0.2,0,0.3-0.3,0.1-0.3c-3-0.7-6.6-0.4-9,1.8c-0.2,0.2,0.1,0.4,0.3,0.4c2.9-0.6,5.7-0.3,8.3-1.9c0.1-0.1,0.1-0.2,0-0.3
						c-2.2-1-4.7-0.4-7-0.1c0,0.1,0.1,0.3,0.1,0.4c1.7-0.9,3.3-0.7,5.1-0.3C87.3,381.1,87.4,380.9,87.2,380.9L87.2,380.9z"/>
				</g>
			</g>
			<g>
				<g>
					<path class="st0" d="M89,380.6c-6.3-0.2-14,2-18.2,6.9c-0.2,0.2,0.2,0.4,0.3,0.2c5.4-4,10.9-6.9,17.9-6.9
						C89.1,380.9,89.2,380.6,89,380.6L89,380.6z"/>
				</g>
			</g>
			<g>
				<g>
					<path class="st0" d="M77.2,383.8c0.1,0,1.9-0.7,2.3-0.7c0.7-0.1,1.3-0.3,2-0.4c3.6-0.9,6.9-1.5,10.6-0.8c0.1,0,0.4-0.2,0.2-0.3
						c-3.9-1.8-8.5,0-12.4,0.9c-0.2,0.1-4.7,1.1-2.8,1.7C77.3,384.1,77.4,383.9,77.2,383.8L77.2,383.8z"/>
				</g>
			</g>
			<g>
				<g>
					<path class="st0" d="M81.4,386.5c-1.1,0.2-1.7,0.2-1.9,1.3c0,0.1,0.1,0.2,0.2,0.3c2.3,0.6,4.7,0.3,6.9-0.7
						c-0.1-0.2-0.2-0.3-0.3-0.5c-0.9,0.5-1.8,0.9-2.7,1.4c-0.3,0.2-0.2,0.6,0.2,0.5c2.2-0.3,4.3-0.6,6.4-1.2
						c0.4-0.1,0.3-0.6-0.1-0.5c-0.5,0.1-0.9,0.3-1.3,0.5c0.2,0.1,0.3,0.2,0.5,0.3c0.3-0.8,0.7-1.5,1.4-2c1.1-0.5,1.1,0.1-0.1,1.6
						c0.2,0.1,0.3,0.2,0.5,0.3c0.3-0.5,1.2-1.6,1.1-1.7c0.4,0.1-0.9,3.1-1.2,3.5c0.2,0,0.4,0,0.6,0c-0.3-0.9-0.6-1.8-0.9-2.7
						c-0.2,0.1-0.4,0.2-0.6,0.3c1.6,1.2,3.2,1.9,5.3,1.8c0.3,0,0.4-0.3,0.1-0.4c-1.8-0.3-3.4-0.8-4.8-1.9c-0.2-0.1-0.6,0-0.5,0.3
						c0.3,0.9,0.6,1.8,0.9,2.7c0.1,0.3,0.5,0.3,0.6,0c0.8-1.4,1.1-2.8,1.1-4.5c0-0.2-0.3-0.2-0.4-0.1c-0.5,0.8-1.1,1.5-1.7,2.2
						c-0.2,0.3,0.3,0.5,0.5,0.3c0.7-0.9,0.8-1.5,1-2.6c0-0.2-0.3-0.3-0.4-0.2c-1.4,0.6-2.3,1.4-2.9,2.9c-0.1,0.3,0.3,0.4,0.5,0.3
						c0.3-0.1,0.7-0.3,1-0.4c0-0.2-0.1-0.3-0.1-0.5c-2.1,0.5-4.2,0.9-6.4,1.1c0.1,0.2,0.1,0.4,0.2,0.5c0.9-0.5,1.8-0.9,2.7-1.4
						c0.4-0.2,0.1-0.7-0.3-0.5c-1.1,0.5-2.3,0.8-3.5,0.9c-0.5,0.1-1,0.1-1.5,0c-0.6-0.7-0.6-1,0.1-1
						C81.8,386.8,81.7,386.4,81.4,386.5L81.4,386.5z"/>
				</g>
			</g>
			<g>
				<g>
					<path class="st0" d="M42.9,277.1c-1.6,0.9-0.4-1.7-0.2-2.3c0.5-1.1,1.2-2.2,1.9-3.2c1.5-2,3.3-3.8,5.2-5.5
						c3.2-2.9,6.7-5.3,10-8c0.1-0.1,0-0.1-0.1-0.1c-3.8,2.8-7.7,5.7-11.1,8.9c-3,2.8-6.6,6.4-7,10.7c0,0.1,0.1,0.1,0.2,0.1
						c0.8-0.2,0.4-0.1,1.2-0.5C43.1,277.2,43,277,42.9,277.1L42.9,277.1z"/>
				</g>
			</g>
			<g>
				<g>
					<path class="st0" d="M58,257.1c-4.4,1.2-6.8,5.7-9.3,9.2c-4.1,5.7-9.4,10.6-13.6,16.2c-0.1,0.1,0.1,0.2,0.1,0.1
						c4.1-5,8.5-9.7,12.5-14.7c3-3.7,5.3-9.3,10.3-10.6C58.1,257.2,58.1,257,58,257.1L58,257.1z"/>
				</g>
			</g>
			<g>
				<g>
					<path class="st0" d="M40.5,279c0.2-3.9,3.3-7.3,5.9-9.9c2.7-2.8,5.6-5.2,8.4-7.8c0.1-0.1,0-0.2-0.1-0.1c-3.1,2.6-6.2,5.3-9,8.3
						c-2.4,2.6-5.3,5.8-5.4,9.6C40.3,279.2,40.5,279.2,40.5,279L40.5,279z"/>
				</g>
			</g>
			<g>
				<g>
					<path class="st0" d="M38.5,264.6c-4.2,3.5-4.7,10.4-5.9,15.4c-1.3,5.4-5.1,12.5-2.5,18c0,0.1,0.2,0,0.2-0.1
						c-1.8-5.7,1.2-11.8,2.6-17.3c1.3-5.1,1.5-12.3,5.9-15.9C38.9,264.6,38.6,264.4,38.5,264.6L38.5,264.6z"/>
				</g>
			</g>
			<g>
				<g>
					<path class="st0" d="M30.9,297c-5.2-2.5-1.2-12.1,0.2-15.8c1.8-4.8,4.1-9.5,6.5-14c0.1-0.1-0.2-0.2-0.2-0.1
						c-3,5.3-5.7,10.8-7.6,16.5C28.6,287.2,26,295,30.9,297C30.9,297.1,30.9,297,30.9,297L30.9,297z"/>
				</g>
			</g>
			<g>
				<g>
					<path class="st0" d="M36.6,268c-2.6,3.2-3.6,7.2-5.2,10.9c-1.5,3.5-4.1,7.1-3.9,11.1c0,0.2,0.3,0.1,0.3,0
						c0.6-4.1,2.6-7.5,4.2-11.3c1.5-3.6,2.4-7.4,4.9-10.5C37,268,36.7,267.9,36.6,268L36.6,268z"/>
				</g>
			</g>
			<g>
				<g>
					<path class="st0" d="M29.6,294.7c-0.8,2.2-0.4-1.2-0.4-1.7c0-0.7,0.1-1.3,0.2-2c0.3-1.8,0.7-3.6,1.3-5.3c1-3,2.4-6,3.9-8.7
						c3.1-5.6,7.1-10.9,11.6-15.4c0.2-0.2-0.2-0.3-0.3-0.2c-4.8,4.7-8.9,10.2-12.1,16.1c-3,5.6-5.6,12.1-4.9,18.6
						c0,0.2,0.2,0.1,0.3,0c0.3-0.4,0.5-0.9,0.7-1.4C29.9,294.7,29.6,294.6,29.6,294.7L29.6,294.7z"/>
				</g>
			</g>
			<g>
				<g>
					<path class="st0" d="M35.4,278.9c-0.7,0.9-0.8,0.1-0.9-0.6c-0.1-1.1,0.3-2.1,0.8-3.1c0.6-1.3,1.4-2.5,2.1-3.7
						c1.6-2.6,3.3-5,5.2-7.4c3.7-4.4,7.9-8.2,12.2-12c0.1-0.1-0.1-0.3-0.2-0.2c-4.8,3.9-9.4,8.1-13.2,12.9c-1.8,2.3-3.4,4.7-4.9,7.2
						c-1.5,2.5-2.9,4.9-2.3,7.8c0,0.1,0.2,0.2,0.3,0.1c0.7-0.2,0.8-0.3,1.3-1C36,278.9,35.6,278.7,35.4,278.9L35.4,278.9z"/>
				</g>
			</g>
			<g>
				<g>
					<path class="st0" d="M41.1,264.5c-0.7,0.9-1.2,1.6-2.2,2.2c0.1,0.1,0.3,0.2,0.4,0.3c6.6-11.5,19.9-18.8,32.2-22.7
						c0.2-0.1,0.1-0.3-0.1-0.3c-12.7,3.1-25.8,11.6-32.6,22.9c-0.2,0.3,0.3,0.4,0.4,0.3c1-0.6,1.6-1.4,2.3-2.3
						C41.8,264.5,41.3,264.3,41.1,264.5L41.1,264.5z"/>
				</g>
			</g>
		</g>
		<g>
			<g>
				<path d="M21.3,262.7c-2.2,0.5-4.7-0.2-6.8-0.6c-2.1-0.5-4.4-0.8-6.4-1.6c-0.3,0.6-0.5,1.2-0.8,1.8c0.1,0,0.2,0.1,0.4,0.1
					c0.7,0.2,1.4-1.7,0.8-1.8c-0.1,0-0.2-0.1-0.4-0.1c-0.7-0.2-1.4,1.5-0.8,1.8c2.2,0.9,4.9,1.4,7.2,1.8c1.9,0.4,4.3,0.9,6.3,0.5
					C21.5,264.4,22,262.6,21.3,262.7L21.3,262.7z"/>
			</g>
			<g>
				<path d="M37.3,235.4c0,0.1,0.1,0.1,0.1,0.2c0.3-0.6,0.6-1.1,1-1.7c-2.7-3.1-4.5-6.9-8-9.1c-0.6-0.4-1.2,1.3-0.9,1.7
					c0.1,0.1,0.1,0.1,0.2,0.2c0.4,0.6,1.4-1.1,1-1.7c-0.1-0.1-0.1-0.1-0.2-0.2c-0.3,0.6-0.6,1.2-0.9,1.7c3.4,2.2,5.2,6,7.8,9
					c0.5,0.6,1.4-1.1,1-1.7c0-0.1-0.1-0.1-0.1-0.2C37.9,233.1,36.9,234.8,37.3,235.4L37.3,235.4z"/>
			</g>
			<g>
				<path d="M79.9,219.2c0.1-1.7,0.3-3.3,0.4-5c0-1.8-0.2-3.5-0.4-5.3c-0.4,0.4-0.7,0.9-1.1,1.3c0.1,0.2,0.2,0.4,0.3,0.6
					c0.3,0.6,1.3-1.1,1-1.7c-0.1-0.2-0.2-0.4-0.3-0.6c-0.4-0.7-1.1,1-1.1,1.3c0.2,1.7,0.4,3.4,0.4,5.1c0,1.6-0.2,3.2-0.4,4.8
					C78.7,221,79.9,219.9,79.9,219.2L79.9,219.2z"/>
			</g>
			<g>
				<path d="M107,230.2c0.1,0,0.2,0.1,0.2,0.1c0.2,0.1,0.5-0.2,0.6-0.3c1.1-1.3,1.5-3,2.1-4.6c0.3-0.9,0.7-1.8,1-2.7
					c0.3-1,0.5-2.5,1.2-3.2c0.4-0.4,0.6-2.3-0.1-1.6c-1.1,1.1-1.4,2.3-1.9,3.8c-0.6,2-1.4,5.4-2.7,7c0.2-0.1,0.4-0.2,0.6-0.3
					c-0.1,0-0.2-0.1-0.2-0.1C107.2,228.1,106.3,229.9,107,230.2L107,230.2z"/>
			</g>
		</g>
	</g>
	<g>
		<g>
			<path d="M1165.9,236.1c0.2,0.1,10.1-8.3,11.1-9.1c1.2-1,2.3-2.1,3.5-3.1c0.6-0.5,1.7-2,2.4-2.2c1.2-0.3,1,0.4,1.7,1.5
				c0.6,1,1.3,2,2,3c0.6,0.8,2.4,2.9,2.1,3.8c0.1,0.1,0.3,0.2,0.4,0.2c-0.7,0-1.4,0.2-2.2,0.3c-2.2,0.5-4.4,1.2-6.5,1.9
				c-5,1.5-10.2,3.8-15.4,4.1c-0.7,0-1.7,1.1-0.5,1.1c0.3,0,0.6,0,0.9,0c0.7,0,2-1.1,0.7-1.1c-0.3,0-0.6,0-0.9,0
				c-0.2,0.4-0.3,0.7-0.5,1.1c6.6-0.4,13.1-3.4,19.4-5.3c1.7-0.5,3.9-0.6,5.5-1.2c0.3-0.1,0.7-0.2,0.9-0.5c0.9-1.4-1.3-4.1-2.1-5.2
				c-1-1.4-2.3-5.1-3.9-5.5c-1.5-0.4-2.8,1.3-3.7,2.1c-5.3,5-11.4,9.1-16.7,14.2c-0.1,0.1-0.3,0.4-0.1,0.5c0.1,0,0.1,0.1,0.2,0.1
				C1164.6,237.3,1166.4,236.6,1165.9,236.1L1165.9,236.1z"/>
		</g>
		<g>
			<path d="M1166.5,364.8c-0.6,0-1.2,0-1.8,0c-0.2,0.4-0.5,0.7-0.7,1.1c6.4-0.1,12.7-0.6,19.1-1.1c1.6-0.1,3.2-0.3,4.8-0.5
				c1.3-0.2,1.8-0.8,1.9,0.4c0.1,0.8-0.6,2.5-0.9,3.3c-0.5,1.8-1.4,3.5-2.1,5.2c-0.6,1.4-1.3,2.6-2.3,3.8c-0.9,1.1-0.8,1.2-1.8,0.4
				c-2-1.6-4-3.3-6.1-4.8c-1.9-1.3-3.9-2.9-6-3.9c-1.7-0.8-5.2-1.7-6.2-3.5c-0.4,0.3-0.9,0.5-1.3,0.8c0.3,0,0.6,0,0.9,0
				c0.7,0,2-1.2,0.7-1.1c-0.3,0-0.6,0-0.9,0c-0.2,0-1.6,0.3-1.3,0.8c1.6,2.9,6.8,3.8,9.3,5.7c1.9,1.3,3.8,2.6,5.7,4
				c1.1,0.8,2.3,1.6,3.3,2.6c0.5,0.5,0.8,1.2,1.4,1.5c2,1.1,3.4-1.2,4.4-2.5c2.9-4,4.3-8.8,5.7-13.5c0-0.1,0-0.2-0.1-0.3
				c-0.6-0.6-1.1-0.5-1.9-0.4c-2.5,0.3-4.9,0.8-7.4,1c-6,0.5-12,1-18,1.1c-0.7,0-2,1.1-0.7,1.1c0.6,0,1.2,0,1.8,0
				C1166.5,365.8,1167.8,364.8,1166.5,364.8L1166.5,364.8z"/>
		</g>
		<g>
			<path d="M1142.5,490.7c1.7,3.2,5,5.1,8.3,6.5c1.8,0.7,3.7,1.3,5.6,1.9c1.6,0.5,4.6,1,5.9,2.3c0.1-0.2,0.2-0.4,0.3-0.7
				c-0.5,0.3-1.4,0.2-1.9,0.4c-1,0.4-1.6,1.2-2.3,2c-1.2,1.3-7.7,8-9.3,6.4c-0.7-0.7-0.5-3.5-0.9-4.4c-0.7-1.9-1.6-3.6-2.2-5.5
				c-0.6-1.8-1.3-3.6-1.5-5.5c-0.1-1.2,0.1-2.2-0.7-3.3c-0.4-0.5-2.2,0.1-1.8,0.8c0.7,0.9,0.5,1.8,0.6,2.8c0.1,1.3,0.4,2.4,0.8,3.6
				c0.7,2.1,1.3,4.2,2.2,6.2c0.5,1,1,2,1.2,3.1c0.2,0.9-0.2,2.2,0.2,3.1c0.4,0.9,0.4,1,1.4,1c2.5,0.1,6.2-3,8-4.4
				c1.5-1.2,2.5-2.8,4-4c1.1-0.9,2.2-0.9,3.3-1.6c0.2-0.1,0.5-0.4,0.3-0.7c-1.7-1.8-5.3-2.2-7.6-2.9c-4.3-1.4-9.7-3.1-12-7.5
				C1144.1,489.5,1142.2,490.1,1142.5,490.7L1142.5,490.7z"/>
		</g>
		<g>
			<path d="M1143.3,140.5c0.3-1.6,3.1-3.6,4.1-4.8c1.5-1.8,2.9-3.6,4.3-5.5c1.3-1.7,2.5-3.5,3.8-5.3c1.5-2,1.8-0.2,2.9,1.1
				c0.8,1,3.9,3.1,3.9,4c0,1.2-3.1,2.4-3.9,2.8c-5.2,2.6-10.8,4.2-16.1,6.5c0.4,0.5,0.8,1.1,1.1,1.6c0.1,0,0.1-0.1,0.2-0.1
				c0.5-0.2-0.6-1.8-1.3-1.5c-0.1,0-0.1,0.1-0.2,0.1c-0.5,0.2,0.6,1.8,1.1,1.6c6.2-2.7,13.3-4.3,19-8.1c1-0.7,1.9-1.2,1.6-2.4
				c-0.2-0.7-0.8-1-1.3-1.5c-1.5-1.6-3.1-3-4.3-4.7c-0.6-0.8-1.3-2.6-2.6-2.4c-1.3,0.2-2.7,3-3.3,3.8c-2.4,3.3-4.6,6.7-7.4,9.6
				c-1.2,1.3-2.9,2.3-3.2,4.1C1141.7,140.1,1143.2,141.4,1143.3,140.5L1143.3,140.5z"/>
		</g>
	</g>
</g>
</svg>
