<?xml version="1.0" encoding="utf-8"?>
<!-- Generator: Adobe Illustrator 19.0.0, SVG Export Plug-In . SVG Version: 6.00 Build 0)  -->
<svg version="1.1" xmlns="http://www.w3.org/2000/svg" xmlns:xlink="http://www.w3.org/1999/xlink" x="0px" y="0px"
	 viewBox="0 0 1278.1 632.9" style="enable-background:new 0 0 1278.1 632.9;" xml:space="preserve">
<g id="BG">
</g>
<g id="Layer_1">
	<g id="Layer_2">
	</g>
	<g>
		<g>
			<path d="M87.7,195.9c-2.9-1.9-3.4-6.8-4.4-9.9c-1.3-4-2.4-8.1-3.3-12.2c-1.9-8.5-3.5-17.1-4.1-25.8c-1.1-16.8,1-33,3.4-49.5
				c1.1-7.4,2.2-15,3.8-22.3c0.3-1.1,0.8-4.4,1.3-4.8c1.4-1,1-0.6,2.2,0.4c1,0.8,1.8,2.4,2.6,3.3c2.7,3.3,5.5,6.4,8.1,9.8
				c10.9,13.6,19.9,28.6,28.1,43.9c4.3,7.9,7.9,15.7,11.4,24c3.6,8.5,8.4,16.5,12.1,25c0.4,1,2.4-1.1,2-2c-3.7-8.5-8.5-16.5-12.1-25
				c-3.6-8.6-7.5-16.6-11.9-24.8c-9-16.8-19.1-33-31.4-47.7c-1.3-1.6-2.7-3.2-4.1-4.8c-1.3-1.5-2.4-3.9-4-5.1
				c-1.2-1-1.9-1.2-3.2-0.1c-1.7,1.4-2.2,4.4-2.7,6.4c-1.2,4.5-1.8,9.1-2.6,13.7c-3.1,17.8-5.8,35.4-5.6,53.5
				c0.2,10.5,1.7,20.8,3.9,31c1,4.9,2.2,9.7,3.7,14.4c1.1,3.5,1.7,8.9,4.9,11C86.8,198.8,88.5,196.5,87.7,195.9L87.7,195.9z"/>
		</g>
		<g>
			<path d="M86.2,199.2c7.1-3.3,14.6-4.3,22.1-6.2c7.6-1.9,15.2-3.8,22.8-5.6c5.7-1.4,14-1.1,18.9-4.6c2.5-1.8,1.9-3.5,0.7-6
				c-0.5-1-2.5,1.1-2,2c1.4,3-0.2,3-3.4,3.7c-2.7,0.6-5.5,0.8-8.2,1.4c-6,1.2-12,2.9-17.9,4.3c-10.8,2.7-22.4,4.1-32.5,8.8
				C85.8,197.4,84.7,199.9,86.2,199.2L86.2,199.2z"/>
		</g>
		<g>
			<path d="M73,127.2c0.1,0.2,0.1,0.4,0.2,0.6c0.4-0.7,0.8-1.4,1.2-2.1c-5.8,3.5-12,6.7-16.3,12.2c-4,5-6.3,11.2-7.1,17.5
				c-0.9,7.6-0.2,15.7,0.6,23.3c0.8,7.3,1.2,16.5,5.4,22.8c0.1,0.2,0.3,0.3,0.5,0.2c4.1-1,6.8-4.2,10-6.7c1.7-1.3,3.4-2.7,5-4.1
				c2.5-2.2,4.4-5.3,7-7.3c0.8-0.7,1.4-3.1-0.1-2c-3.4,2.6-5.7,6.3-9,9c-2.5,2.1-5.1,4.6-7.8,6.4c-3.1,2-4.5,1.4-5.7-1.7
				c-0.9-2.4-1.3-5-1.7-7.6c-0.7-4.1-1.3-8.3-1.7-12.4c-0.8-8.2-1.7-17.2,0.2-25.3c2.7-11.2,10.8-16.5,20.1-22.1
				c0.7-0.4,1.5-1.3,1.2-2.1c-0.1-0.2-0.1-0.4-0.2-0.6C74.8,124.3,72.7,126.2,73,127.2L73,127.2z"/>
		</g>
		<g>
			<path d="M118.1,112.7c10.4,0.5,21.6,2.3,30.7,7.4c9.3,5.2,14.7,14.5,20,23.4c2.5,4.3,4.5,8.5,6.4,13.1c0.4,0.9,2.5,4.1,2.4,5.2
				c-0.1,3.2-4.7,2.1-6.6,2c-9.9-0.3-19.7-1.3-29.1-4.7c-0.9-0.3-2.5,2.1-1.4,2.5c5.8,2.2,11.8,3.4,17.9,4.1
				c5.4,0.6,11.7,1.4,17.1,1c9-0.8,1.7-11.9,0.1-16.1c-2.3-5.7-5.6-11.3-9-16.4c-3.2-4.8-7.1-10.4-11.8-13.9
				c-10-7.3-23.3-9.6-35.3-10.2C118.5,110.2,117.1,112.7,118.1,112.7L118.1,112.7z"/>
		</g>
		<g>
			<path d="M99.1,111.7c-6.2-1.2-11.9,5.7-13.5,11.1c-2.4,8.2,5.2,14.3,12.9,13.8c7.1-0.4,14-4.3,12-12.4c-0.9-3.8-3.1-7.3-6.1-9.7
				c-1.8-1.5-5-4.2-7.5-3.6c-0.9,0.2-2.2,2.8-1,2.5c2.8-0.6,9.2,4,10.6,6c1.2,1.8,2.3,4,2.8,6c0.2,0.7,0.1,2,0.1,2.7
				c-1.3,1.7-3.3,3.3-4.6,5.1c-0.8,0.5-2.8,1.3-3.7,1.4c-4.8,0.7-10.7-0.7-13.2-5.3c-3.1-5.7,2.7-16.5,9.8-15.1
				C98.7,114.3,100.2,111.9,99.1,111.7L99.1,111.7z"/>
		</g>
		<g>
			<path d="M112,148.2c-4.5-2.4-12.1,3.2-14.3,6.9c-1.8,3.1-2.6,7.5-1.6,11c1.3,4.7,6.7,5.9,11,6.4c6.9,0.8,15.9-1.6,16.1-9.9
				c0.1-4.5-2.1-7.9-5.5-10.4c-2.5-1.8-5.2-4.7-8.6-3.8c-0.9,0.2-2.2,2.8-1,2.5c3-0.8,9.4,4.1,11,6.5c0.5,0.8,0.8,1.9,1.1,2.8
				c1,3.1,0.9,3.2-1.4,6.3c-2.2,2.9-2.3,3.1-5.3,3.4c-1.7,0.2-3.4,0.3-5.1,0.1c-2.2-0.3-4.4-0.9-6.5-1.8c-4-1.6-4.6-5.5-3.9-9.4
				c0.7-3.7,7.4-10.9,12.1-8.3C111.2,151,112.9,148.6,112,148.2L112,148.2z"/>
		</g>
		<g>
			<path d="M101,194.5c0.4,4.7,0.4,9.3,0.2,14c-0.1,2.1-1,9.2,1.1,10.8c1.8,1.3,5.6-1.2,7.3-1.8c5.7-2.1,11.4-3.9,17.2-5.9
				c4.5-1.6,9-2.7,13.5-4.2c1.5-0.5,3.3-0.9,3.8-2.6c0.7-2.6-2.7-6.6-3.9-8.6c-2.3-3.8-4.2-7.9-7.3-11.2c-0.7-0.7-2.3,1.5-1.9,2.2
				c0,0.1,0.1,0.2,0.1,0.2c0.5,1,2.5-1.1,2-2c0-0.1-0.1-0.2-0.1-0.2c-0.6,0.7-1.3,1.4-1.9,2.2c2.8,2.9,4.6,6.6,6.6,10.1
				c0.9,1.5,1.9,3,2.7,4.5c0,0,1.6,4.4,2.1,2.4c-0.3,1-8.3,2.6-9.7,3.1c-4,1.4-7.9,2.8-11.9,4.1c-3.5,1.2-7,2.4-10.4,3.6
				c-1.1,0.4-3.2,1.5-4.4,1.5c-0.7,0.7-1.2,0.6-1.6-0.3c-0.8-0.4-1.1-1.1-0.9-1.9c-1-3.3-0.2-7.1,0-10.5c0.2-3.6,0-7.3-0.4-10.9
				C103.1,191.6,100.9,193.5,101,194.5L101,194.5z"/>
		</g>
		<g>
			<path d="M120.4,219.5c-8.2,2.3-9.2,16.8-7.7,23.4c0.1,0.7,1.2-0.1,1.3-0.3c0.9-0.9,1.1-1.3,1.9-2.4c-0.2,0.4,3.1-4.4,3.5-4.4
				c2,0.1,4.5,9.5,5.4,11.1c1.7,3.2,4.1,5.4,6.7,7.9c1.4,1.3,4.9,5.9,7,6.1c3.6,0.3,3-6.5,3.1-8.2c0.3-3.9,0.7-8,0.7-11.9
				c0-3.5-1.1-6.6-1.8-10c-0.5,0.7-1,1.5-1.5,2.2c3.8-1.2,6.2,4.2,9.5,3.6c0.7-0.1,1.4-1.1,1.5-1.7c0.4-3.1-2.1-6.8-4.1-8.9
				c-4-4.3-10-7.7-15.9-8.1c-2.7-0.2-8.2-0.5-10.1,1.8c-2.1,2.7,0,8.1,1.5,10.5c0.3,0.5,1,0.1,1.3-0.3c1.7-1.8,2.7-3.9,3.7-6.3
				c-0.7,0.4-1.3,0.8-2,1.2c3.2,4.3,1.2,11,4.1,15.7c0.1,0.2,0.3,0.2,0.5,0.2c7.8-0.4,5.1-23-2.8-22.3c-0.9,0.1-2.3,2.6-1,2.5
				c6-0.5,7.2,16.8,4.8,16.9c-1.2,0-2.2-13.1-3.6-15c-0.6-0.9-1.8,0.7-2,1.2c-0.2,0.4-1.7,3.7-2.4,4.4c0.4-0.1,0.9-0.2,1.3-0.3
				c-1.3-2.1-2.9-6-1.9-8.4c-0.5,0.5-1,1-1.4,1.4c6.1-1.4,12.3-1.2,17.7,2.2c3.5,2.2,10.8,7.4,10.1,12.5c0.5-0.6,1-1.2,1.5-1.7
				c-1.2,0.2-3.9-2.2-5-2.7c-1.6-0.8-2.7-1.4-4.5-0.9c-0.9,0.3-1.7,1.3-1.5,2.2c1.1,4.8,1.6,8.6,1.4,13.5c-0.2,4.2,0.5,9.5-0.8,13.4
				c0.5-0.5,1-1,1.4-1.4c-1.5,0.4-4.5-3.2-5.5-4c-2.5-2.3-5.5-5-7.4-7.9c-2.4-3.9-3-10.3-6.4-13.3c-0.2-0.2-0.5,0-0.7,0
				c-3.5,1.3-4.6,5.8-7.2,8.1c0.4-0.1,0.9-0.2,1.3-0.3c-1-4.4-0.9-17.4,4.7-19C120.3,221.7,121.6,219.2,120.4,219.5L120.4,219.5z"/>
		</g>
		<g>
			<path d="M86.1,121.8c-0.4,2.5,2.1,4.9,3.4,6.8c1.6,2.2,3.8,6.2,6.5,7.1c0.6,0.2,1.7-1.4,0.9-1.6c-2.1-0.8-3.9-4-5.2-5.7
				c-1.2-1.5-4.7-5-4.3-7.2C87.7,120.1,86.2,121.2,86.1,121.8L86.1,121.8z"/>
		</g>
		<g>
			<path d="M90.3,117.9c0-0.1-0.1-0.2-0.1-0.3c-0.3-0.6-1.5,0.6-1.2,1.3c2.8,6,6.3,12.5,11.2,17.1c0.5,0.4,1.1-0.7,1.2-1
				c0.1-0.6,0.1-0.7-0.2-1.3c-0.3-0.6-1.5,0.6-1.2,1.3c0,0.2,0.1,0.4,0.1,0.6c0.4-0.3,0.8-0.7,1.2-1c-4.9-4.6-8.3-10.9-11-16.9
				c-0.4,0.4-0.8,0.8-1.2,1.3c0,0.1,0.1,0.2,0.1,0.3C89.4,119.8,90.6,118.5,90.3,117.9L90.3,117.9z"/>
		</g>
		<g>
			<path d="M91.8,115.6c2.4,6.4,6.4,14,11.3,19.1c0.5,0.5,1.3-0.8,1-1.3c0-0.1-0.1-0.2-0.1-0.2c-0.4-0.7-1.4,0.6-1.1,1.2
				c0,0.1,0.1,0.2,0.1,0.2c0.3-0.4,0.7-0.8,1-1.3c-4.9-5-8.7-12.6-11.1-18.9C92.7,113.8,91.6,114.9,91.8,115.6L91.8,115.6z"/>
		</g>
		<g>
			<path d="M94.7,113.3c2.2,4.3,4.5,8.5,7.1,12.5c1.3,2,2.8,5.7,4.6,7.2c0.5,0.4,1.5-1,1-1.4c-1.1-0.8-1.8-2.9-2.5-4
				c-0.9-1.4-1.8-2.8-2.7-4.2c-2.3-3.7-4.3-7.5-6.3-11.3C95.5,111.5,94.4,112.7,94.7,113.3L94.7,113.3z"/>
		</g>
		<g>
			<path d="M99.2,113.4c1.4,2.9,3,5.7,4.7,8.5c1.8,2.8,3.9,5.3,5.5,8.3c0.3,0.7,1.5-0.6,1.2-1.2c0-0.1-0.1-0.2-0.1-0.2
				c-0.3-0.6-1.5,0.6-1.2,1.2c0,0.1,0.1,0.2,0.1,0.2c0.4-0.4,0.8-0.8,1.2-1.2c-1.6-3-3.7-5.4-5.5-8.3c-1.7-2.8-3.3-5.6-4.7-8.5
				C100.1,111.5,99,112.8,99.2,113.4L99.2,113.4z"/>
		</g>
		<g>
			<path d="M97.5,160c0-0.1-0.1-0.2-0.1-0.3c-0.5,0.4-0.9,0.9-1.4,1.3c1.5,3.4,4.4,5.7,6.4,8.7c0.1,0.1,0.2,0.2,0.4,0.2
				c0.1,0,0.2,0,0.3-0.1c0.6-0.1,1.5-1.8,0.6-1.6c-0.2,0.1-2.7-3.3-2.9-3.5c-1.3-1.5-2.6-3.1-3.5-5c-0.3-0.7-1.6,0.7-1.4,1.3
				c0,0.1,0.1,0.2,0.1,0.3C96.4,162,97.8,160.7,97.5,160L97.5,160z"/>
		</g>
		<g>
			<path d="M98.4,156.7c-0.3,2.4,1.4,4.3,2.5,6.3c1.9,3.2,3.4,6.6,6.3,9c0.5,0.4,1.5-1,1.3-1.4c0-0.1-0.1-0.1-0.1-0.2
				c-0.4-0.7-1.7,0.8-1.4,1.3c0,0.1,0.1,0.1,0.1,0.2c0.4-0.5,0.9-1,1.3-1.4c-2.5-2.2-3.9-5-5.5-7.8c-1.1-1.9-3.4-4.3-3.1-6.7
				C99.9,154.9,98.5,156.1,98.4,156.7L98.4,156.7z"/>
		</g>
		<g>
			<path d="M99.8,155.3c2.2,2.8,4.1,5.7,6.5,8.3c2.2,2.5,3.8,5.7,6.4,7.8c0.5,0.4,1.4-0.9,1.3-1.3c0-0.1,0-0.2,0-0.3
				c-0.1-0.9-1.5,0.4-1.4,1c0,0.1,0,0.2,0,0.3c0.4-0.4,0.9-0.9,1.3-1.3c-2.5-2-4.3-5.3-6.4-7.8c-2.3-2.6-4.3-5.5-6.5-8.3
				C100.6,153.3,99.3,154.7,99.8,155.3L99.8,155.3z"/>
		</g>
		<g>
			<path d="M103.3,152.8c3.2,6.2,8.3,12.9,13.3,17.7c0.5,0.5,1.5-1,1.3-1.4c-0.1-0.2-0.2-0.4-0.3-0.6c-0.3-0.7-1.6,0.7-1.4,1.3
				c0.1,0.2,0.2,0.4,0.3,0.6c0.4-0.5,0.9-1,1.3-1.4c-5-4.8-10-11.2-13.2-17.5C104.3,150.8,103,152.2,103.3,152.8L103.3,152.8z"/>
		</g>
		<g>
			<path d="M106,149.5c4.4,6,7.8,12.4,12.7,18c0.1,0.1,0.2,0.1,0.3,0c0.1,0,0.2,0,0.3-0.1c0.6-0.1,1.5-1.8,0.6-1.6
				c-1.5,0.3-5.9-7.4-6.5-8.4c-2-3.1-3.9-6.3-6.1-9.3C106.9,147.5,105.6,149,106,149.5L106,149.5z"/>
		</g>
		<g>
			<path d="M110.8,149.9c3,4.5,6.8,8.8,9.3,13.5c0.3,0.7,1.7-0.8,1.4-1.3c-2.6-4.8-6.3-9-9.3-13.5
				C111.7,147.9,110.4,149.3,110.8,149.9L110.8,149.9z"/>
		</g>
		<g>
			<path d="M78.5,91.6c4.3,0.7,8.6,1.1,12.8,0.1c3.2-0.7,6-2.6,9.2-3c0.5-0.1,0.9-0.7,1-1.2c0-0.2,0.1-0.3,0.1-0.5
				c0.3-1-1.2,0.1-1.4,0.7c0,0.2-0.1,0.3-0.1,0.5c0.3-0.4,0.7-0.8,1-1.2c-3,0.4-5.6,2.1-8.6,2.9c-4.4,1.1-8.7,0.8-13.2,0
				C78.8,89.8,77.8,91.5,78.5,91.6L78.5,91.6z"/>
		</g>
		<g>
			<path d="M82.7,82.1c-1,1.5-1,2.8-0.9,4.6c0.5-0.3,1-0.7,1.4-1c-0.2-1.7-0.3-3.4-0.3-5.1c0-0.9-1.3,0.4-1.4,0.9
				c-0.4,2.2-0.9,4.4-1,6.7c0.5-0.3,1-0.7,1.4-1c-0.1-1.4,0.2-2.7,0.7-4c-0.4,0.3-0.9,0.5-1.3,0.8c0.6,0.7,0.9,1.6,0.9,2.6
				c0.1,1,1.3-0.5,1.4-0.9c0.5-1.7,0.2-3.4,0.6-5c-0.5,0.3-0.9,0.7-1.4,1c0.6,1.8,0.8,3.9,1,5.8c0.1,1,1.4-0.5,1.4-1
				c0.2-3-0.5-6-0.3-8.9c-0.5,0.4-0.9,0.8-1.4,1.2c1.3,1.7,1.2,3.6,1.7,5.6c0.4,1.9,1.3,3.7,1.3,5.7c0.5-0.3,1-0.7,1.4-1
				c-0.4-2.7-0.8-5.4-1.2-8.1c-0.3-2-1.4-5-1.3-7c-0.5,0.4-0.9,0.8-1.4,1.2c2.7,4.4,2.7,9.8,4.4,14.5c0,0.1,0.2,0.2,0.4,0.2
				c4.4-1.2-1.3-13.4-1.2-15.6c-0.5,0.4-0.9,0.8-1.4,1.2c2.8,3.7,1.9,9.1,4.2,13.1c0.4,0.7,1.4-0.7,1.4-1.2
				c-0.3-4.4-2.5-8.3-3.1-12.7c-0.5,0.4-0.9,0.8-1.4,1.2c1.1,2.5,1.9,5.2,3,7.7c0.5-0.4,0.9-0.9,1.4-1.3c-0.8-1.7-2.4-9.1-5.4-6.2
				c-1.1,1.1-1.1,3.3-1.2,4.7c-0.3,3.1,0.3,6,0.3,9.1c0.5-0.3,1-0.7,1.4-1c-0.1-2-0.5-4.5-2.7-5.2c-1.1-0.3-2.4-0.1-2.9,1.1
				c-1.9,5,10,4.3,12.1,4.3c0.3-0.6,0.5-1.1,0.8-1.7c-3.6,0.2-8.2-1-11.6,0.5c-0.4,0.2-1.1,1-0.8,1.4c1.2,2.2,6.6,1.4,6.8-1.4
				c0.2-3.1-5.6-1.4-7-0.5c-0.3,0.2-0.7,0.7-0.7,1.2c0.3,4,5.9,1.9,8,0.7c0.4-0.2,1.1-0.9,0.8-1.4c-1.9-3.6-12.2,3.9-2,4.7
				c1.9,0.1,5.1-0.1,5.1-2.7c0-2.8-7-5-9.1-4.2c-2.5,0.9-1.5,2.9,0.3,4c2.6,1.6,8.5,2.6,10.9,0c3.6-4.2-5.7-9.3-5-4
				c0.3,2.2,3.6,4.5,5.3,2.4c2.3-2.9-2-7.9-4.4-9.1c-0.5-0.2-0.9,0.4-1.1,0.7c-1.3,2.4,2.7,8,5.4,7.1c0.5-0.2,1.1-0.8,1-1.3
				c-0.1-3.2-2.3-6.9-4.6-9c-0.5-0.4-1.6,1-1.3,1.4c1.1,1.7,2.4,3.1,3.7,4.6c1.2,1.3,2.2,3.3,3.8,4.1c0.6,0.3,1.2-0.7,1.3-1.1
				c0.3-1.4-0.3-2.2-1.7-2.3c-0.6,0-1,0.7-1.2,1.2c-0.3,1.1-0.4,2.7-1.5,3.3c-0.1,0.5-0.2,1-0.3,1.5c1.7-0.9,2.8-2.2,4.5-3.3
				c0.4-0.3,1.1-1.9,0.1-1.4c-2,0.9-4.2,0.9-6.1,1.9c-0.3,0.2-1.4,1.4-0.6,1.6c2,0.6,7.9-0.9,8.2-3.5c0-0.2,0-0.4-0.2-0.5
				c-2.1-0.5-5.6,0.1-5.9,2.9c-0.4,3.2,3,1.9,4.6,1c0.4-0.2,0.9-0.8,0.9-1.3c-0.1-1.1-1.1-2-1.6-3.1c-0.3-0.6-1.1,0.3-1.2,0.6
				c-0.8,1.5-1.9,4-4,3.8c-1.8-0.2-2.7-5.2-2.9-6.1c-0.5-2.7-0.7-5.5-2.8-7.5c-0.5-0.5-1.3,0.9-1.3,1.3c-0.1,2.6,1.3,4.7,2.3,7
				c0.3,0.7,1.5-0.7,1.4-1.2c-0.6-3.8-1.3-7.9-3.3-11.3c-0.3-0.6-1.1,0.3-1.2,0.6c-1.9,3.2-0.2,7.8-1.1,11.3
				c0.5-0.3,0.9-0.6,1.4-0.9c-0.3-1.9-0.2-4.3,0-6.2c0.2-1.2,0.6-2.2,0.3-3.4c-0.2-0.9-1.2,0.3-1.4,0.7c-1,2.8-1.3,5.8-2.6,8.4
				c0.5-0.2,0.9-0.4,1.4-0.7c-0.3-1.5,0.2-3.5,0.6-5c-0.5,0.3-0.9,0.7-1.4,1c0.4,1.3-0.1,2.9-0.4,4.3c-0.2,1.1,1.2-0.1,1.4-0.7
				c0.4-1.4,0.3-2.8,0.7-4.2c0.4-1.9,0.4-3.5,2.1-1.1c1.1,1.7,1.7,3.7,3,5.4c0.4,0.5,1.5-1,1.3-1.4c-0.9-1.9-1.7-3.9-2.6-5.8
				c-0.5,0.4-0.9,0.9-1.4,1.3c1.7,2.7,4.1,5.4,6.4,7.7c0.5,0.5,1.5-1,1.3-1.4c-0.9-1.9-2.8-6.5-5.2-6.9c-0.6-0.1-1.3,1-1.2,1.5
				c0.9,3.4,3.5,6.2,5.2,9.2c0.4,0.7,1.6-0.8,1.4-1.3c-1.3-3.1-2.5-7.2-6.1-8.3c-0.4-0.1-1,0.6-1.1,1c-0.5,1.4,0,2,0.5,3.4
				c1.1,3.2,2.4,6.3,3.8,9.4c0.3,0.7,1.6-0.7,1.4-1.3c-1-2.2-2.1-4.4-2.9-6.7c-0.4-1.1-1.9-3.9-1.5-5.1c-0.4,0.3-0.7,0.6-1.1,1
				c3.4,1,4.5,5.1,5.7,8c0.5-0.4,0.9-0.9,1.4-1.3c-1.7-3-4.3-5.8-5.2-9.2c-0.4,0.5-0.8,1-1.2,1.5c2,0.4,4,5,4.8,6.6
				c0.4-0.5,0.9-1,1.3-1.4c-2-1.9-4.7-5-6.2-7.4c-0.4-0.7-1.6,0.8-1.4,1.3c0.9,1.9,1.7,3.9,2.6,5.8c0.4-0.5,0.9-1,1.3-1.4
				c-1-1.2-3-8-5.6-7.2c-2.8,0.9-2.2,7.6-2.7,9.3c0.5-0.2,0.9-0.4,1.4-0.7c0.3-1.6,0.7-3.3,0.3-4.9c-0.2-0.8-1.3,0.8-1.4,1
				c-0.4,1.6-0.9,3.6-0.6,5.3c0.2,0.9,1.2-0.3,1.4-0.7c1.2-2.7,1.6-5.6,2.6-8.4c-0.5,0.2-0.9,0.4-1.4,0.7c0.3,1.5-0.4,3-0.5,4.5
				c-0.1,1.6-0.1,3.5,0.2,5.1c0.1,1,1.3-0.5,1.4-0.9c0.8-3-0.8-7.8,0.8-10.5c-0.4,0.2-0.8,0.4-1.2,0.6c1.9,3.3,2.6,7.2,3.2,11
				c0.5-0.4,0.9-0.8,1.4-1.2c-1-2.2-2.3-4.2-2.2-6.7c-0.4,0.4-0.9,0.9-1.3,1.3c3,2.9,1.3,12.8,6.4,13.9c3.2,0.7,4.5-3.4,5.6-5.5
				c-0.4,0.2-0.8,0.4-1.2,0.6c0.2,0.6,0.3,1.2,0.5,1.8c0,0.1,0.1,0.3,0.2,0.3c0.3,0.2,0.5,0.5,0.8,0.7c0.3-0.4,0.6-0.9,0.9-1.3
				c-1.2,0.7-0.3-0.8-0.7-1.1c-0.1,0-1.3,0.4-1.9,0.6c-1.1,0.3-2.4,0.8-3.5,0.4c-0.2,0.5-0.4,1.1-0.6,1.6c1.7-1,4.2-1.1,6.1-1.9
				c0-0.5,0.1-0.9,0.1-1.4c-1.4,0.9-2.6,2.2-4.1,3.1c-0.5,0.3-1.3,2-0.3,1.5c2.5-1.3,2.5-3,3.2-5.5c-0.4,0.4-0.8,0.8-1.2,1.2
				c0.4,0.4,0.8,0.9,1.3,1.3c0.4-0.4,0.9-0.7,1.3-1.1c-1.2-0.6-1.9-1.9-2.7-2.9c-1.6-1.9-3.3-3.5-4.6-5.6c-0.4,0.5-0.9,1-1.3,1.4
				c2.1,1.9,4.2,5.6,4.3,8.5c0.3-0.4,0.7-0.9,1-1.3c-1.4,0.5-5.8-3.8-5-5.3c-0.4,0.2-0.8,0.5-1.1,0.7c1.7,0.8,3.2,2.3,3.9,4.1
				c0.7,1.6,1.1,3.8-1,1.7c-1.8-1.7-1.1-1.7,0.1-0.3c0.4,0.4,1.5,1.2,1.5,1.8c0,2.2-3.2,1.8-4.5,1.7c-0.6,0-5.8-1.7-5.5-2
				c0.4-0.6,5.1,1.3,5.5,1.6c2.8,2.2-1.2,2.1-2.8,1.6c-4.1-1.2,0.6-3.1,1.5-1.4c0.3-0.5,0.6-1,0.8-1.4c-0.1,0.1-7.1,2.8-6.3,0.5
				c0-0.1,1.7-0.4,1.8-0.4c2.8,0.4-0.4,2.1-1.5,0.1c-0.3,0.5-0.6,1-0.8,1.4c3.3-1.5,7.8-0.2,11.3-0.4c0.5,0,1.5-1.6,0.8-1.7
				c-2.6-0.1-5.2,0.3-7.7-0.3c-1.3-0.3-2.8-1-3-1.5c0.7-0.3,1.2,0.2,1.4,1.4c0.3,0.9,0.5,1.9,0.5,2.9c0,0.9,1.4-0.5,1.4-1
				c0-2.1-1.6-8.5-0.1-10.2c-0.2-0.9,0-1.1,0.7-0.7c0.6,0,0.9,0.3,0.9,0.9c1,1.1,1.5,3.4,2.1,4.7c0.3,0.7,1.6-0.7,1.4-1.3
				c-1.1-2.5-1.9-5.1-3-7.7c-0.3-0.7-1.5,0.7-1.4,1.2c0.6,4.3,2.8,8.3,3.1,12.7c0.5-0.4,0.9-0.8,1.4-1.2c-2.4-3.9-1.5-9.4-4.2-13.1
				c-0.5-0.7-1.4,0.7-1.4,1.2c-0.1,2.2,1,4.4,1.6,6.5c0.3,1.3,0.4,4.5,1,5.6c0.9,1.5,0.4-0.8,0.4-1.7c-0.1-1.2-0.7-2.5-1-3.7
				c-0.7-2.8-1.3-5.7-2.8-8.2C85,73,84,74.6,84,74.9c-0.1,2.3,0.9,4.7,1.3,7c0.4,2.7,0.8,5.4,1.2,8.1c0.2,1,1.4-0.5,1.4-1
				c0-1.9-0.7-3.3-1.1-5.1c-0.6-2.3-0.4-4.5-1.9-6.5c-0.5-0.7-1.4,0.8-1.4,1.2c-0.2,2.9,0.4,5.9,0.3,8.9c0.5-0.3,1-0.7,1.4-1
				c-0.2-2-0.4-4.1-1.1-6.1c-0.3-0.8-1.3,0.8-1.4,1c-0.5,1.6-0.1,3.3-0.6,5c0.5-0.3,0.9-0.6,1.4-0.9c-0.1-1.1-0.3-1.9-0.9-2.9
				c-0.4-0.6-1.2,0.5-1.3,0.8c-0.8,1.6-0.8,3-0.9,4.7c0,0.9,1.4-0.5,1.4-1c0.1-2.2,0.6-4.2,1-6.4c-0.5,0.3-0.9,0.6-1.4,0.9
				c0,1.7,0.1,3.4,0.3,5.1c0.1,0.9,1.4-0.5,1.4-1c-0.1-1.2,0.1-2.3,0.6-3.4C84.4,81.2,83.1,81.3,82.7,82.1L82.7,82.1z"/>
		</g>
		<g>
			<path d="M101.5,232.9c-5.5,9.7-4.1,22.6-3.9,33.3c0.3,12.6,0.8,25.3,2,37.9c0.3,3.9,2.6,28.7,9,25.8c0.5-0.2,1.5-1.1,1.3-1.8
				c-0.1-0.3-0.2-0.5-0.2-0.8c-0.3-1-2.6,0.7-2.3,1.7c0.1,0.3,0.2,0.5,0.2,0.8c0.4-0.6,0.8-1.2,1.3-1.8c-4.5,3.7-7.3-22.5-7.5-25.2
				c-1-12-1.6-24.9-1.9-36.9c-0.3-10.4-2.1-23.2,4.1-33C104.5,231.2,102,232,101.5,232.9L101.5,232.9z"/>
		</g>
	</g>
	<g>
		<path d="M1181.3,138.1c-0.3,0.9,0.6,1.2,1.3,1.1c1.4-0.1,1.8-1.6,2.2-2.7c2.5-6.7,3.7-13.8,5-20.9c-0.6,0.1-1.2,0.2-1.9,0.4
			c4.3,7.9,8.5,15.8,12.8,23.8c0.6-0.2,1.1-0.5,1.7-0.7c-9.7-6.2-20.8-9.6-32.3-9.9c-0.2,0.3-0.3,0.7-0.5,1
			c4.9-0.9,9.7-1.8,14.6-2.7c2.4-0.4,4.9-0.9,7.3-1.3c1.2-0.2,2.4-0.4,3.7-0.7c0.4-0.1,3.3-0.9,3.7-0.7c0.5,1.1,0.9,2.1,1.4,3.2
			c-0.7,0.6-1.5,1.1-2.4,1.5c-1.1,0.6-2.2,1.2-3.2,1.8c-2.2,1.2-4.3,2.4-6.5,3.5c-4.3,2.4-8.6,4.7-13,7.1c-0.7,0.4-0.2,0.9,0.4,0.8
			c1.3-0.2,2.6-0.5,3.9-0.7c0.9-0.2,1.5-1.3,0.3-1c-1.3,0.2-2.6,0.5-3.9,0.7c0.1,0.3,0.3,0.5,0.4,0.8c5.9-3.2,11.9-6.5,17.8-9.7
			c2-1.1,10.4-4.1,8.9-7.8c-0.5-1.3-2.1-1.3-3.2-1.3c-3.1,0.2-6.2,1.1-9.3,1.7c-6.9,1.3-13.8,2.5-20.7,3.8c-0.6,0.1-1.7,1-0.5,1
			c11.3,0.4,22.1,3.7,31.6,9.8c0.3,0.2,2-0.1,1.7-0.7c-4.3-7.9-8.5-15.8-12.8-23.8c-0.3-0.6-1.7-0.2-1.9,0.4
			c-0.7,3.7-1.3,7.4-2.2,11.1c-0.4,1.7-0.8,3.5-1.3,5.2c-0.2,0.8-0.4,1.5-0.7,2.3c-0.2,0.6-0.4,1.1-0.6,1.7c-0.3,0.5-0.3,1.1,0,1.7
			C1183.4,137.3,1181.6,137.5,1181.3,138.1L1181.3,138.1z"/>
	</g>
	<g>
		<path d="M1193.6,545.7c-0.2,0.5,0.3,0.7,0.8,0.6c0.8-0.1,1.1-0.9,1.3-1.5c1.4-3.9,2.2-8,2.9-12.1c-0.4,0.1-0.7,0.1-1.1,0.2
			c2.5,4.6,4.9,9.2,7.4,13.8c0.3-0.1,0.6-0.3,1-0.4c-5.6-3.6-12.1-5.6-18.8-5.8c-0.1,0.2-0.2,0.4-0.3,0.6c2.8-0.5,5.7-1,8.5-1.6
			c1.4-0.3,2.8-0.5,4.2-0.8c0.7-0.1,1.4-0.3,2.1-0.4c0.3,0,1.9-0.5,2.1-0.4c0.3,0.6,0.5,1.2,0.8,1.8c-0.4,0.4-0.9,0.7-1.4,0.9
			c-0.6,0.4-1.3,0.7-1.9,1c-1.3,0.7-2.5,1.4-3.8,2c-2.5,1.4-5,2.7-7.5,4.1c-0.4,0.2-0.1,0.5,0.3,0.5c0.8-0.1,1.5-0.3,2.3-0.4
			c0.5-0.1,0.9-0.7,0.1-0.6c-0.8,0.1-1.5,0.3-2.3,0.4c0.1,0.2,0.2,0.3,0.3,0.5c3.5-1.9,6.9-3.8,10.4-5.6c1.2-0.6,6-2.4,5.2-4.5
			c-0.3-0.7-1.2-0.8-1.9-0.7c-1.8,0.1-3.6,0.7-5.4,1c-4,0.7-8,1.5-12,2.2c-0.3,0.1-1,0.6-0.3,0.6c6.5,0.2,12.8,2.2,18.3,5.7
			c0.2,0.1,1.1-0.1,1-0.4c-2.5-4.6-4.9-9.2-7.4-13.8c-0.2-0.3-1-0.1-1.1,0.2c-0.4,2.2-0.8,4.3-1.3,6.5c-0.2,1-0.5,2-0.8,3
			c-0.1,0.4-0.3,0.9-0.4,1.3c-0.1,0.3-0.2,0.7-0.3,1c-0.2,0.3-0.2,0.6,0,1C1194.8,545.2,1193.7,545.4,1193.6,545.7L1193.6,545.7z"/>
	</g>
	<g>
		<path d="M1252.3,571.8c-0.1,0.4,0.3,0.5,0.6,0.5c0.6,0,0.8-0.7,1-1.2c1.1-3.1,1.7-6.4,2.3-9.6c-0.3,0.1-0.6,0.1-0.9,0.2
			c2,3.7,3.9,7.3,5.9,11c0.3-0.1,0.5-0.2,0.8-0.3c-4.5-2.9-9.6-4.4-15-4.6c-0.1,0.2-0.2,0.3-0.2,0.5c2.3-0.4,4.5-0.8,6.8-1.2
			c1.1-0.2,2.3-0.4,3.4-0.6c0.6-0.1,1.1-0.2,1.7-0.3c0.2,0,1.5-0.4,1.7-0.3c0.2,0.5,0.4,1,0.7,1.5c-0.3,0.3-0.7,0.5-1.1,0.7
			c-0.5,0.3-1,0.5-1.5,0.8c-1,0.5-2,1.1-3,1.6c-2,1.1-4,2.2-6,3.3c-0.3,0.2-0.1,0.4,0.2,0.4c0.6-0.1,1.2-0.2,1.8-0.3
			c0.4-0.1,0.7-0.6,0.1-0.5c-0.6,0.1-1.2,0.2-1.8,0.3c0.1,0.1,0.1,0.2,0.2,0.4c2.8-1.5,5.5-3,8.3-4.5c0.9-0.5,4.8-1.9,4.1-3.6
			c-0.2-0.6-1-0.6-1.5-0.6c-1.4,0.1-2.9,0.5-4.3,0.8c-3.2,0.6-6.4,1.2-9.6,1.8c-0.3,0-0.8,0.5-0.2,0.5c5.2,0.2,10.2,1.7,14.6,4.5
			c0.2,0.1,0.9-0.1,0.8-0.3c-2-3.7-3.9-7.3-5.9-11c-0.1-0.3-0.8-0.1-0.9,0.2c-0.3,1.7-0.6,3.4-1,5.1c-0.2,0.8-0.4,1.6-0.6,2.4
			c-0.1,0.4-0.2,0.7-0.3,1.1c-0.1,0.3-0.2,0.5-0.3,0.8c-0.1,0.2-0.1,0.5,0,0.8C1253.3,571.4,1252.4,571.5,1252.3,571.8L1252.3,571.8
			z"/>
	</g>
	<g>
		<path d="M1152.1,107.8c1-2.3,2-4.7,3-7c0.4-1,0.9-2.9,1.6-3.6c1.9-1.6,2.3,1.3,2.7,2.4c1.6,5.1,2.9,10.3,4.2,15.5
			c0.5-0.2,1-0.3,1.5-0.5c-2.6-3.5-5.4-6.8-8.6-9.8c-2.4-2.2-4.8-4.5-8.2-4.6c-0.2,0-1.6,0.5-0.9,0.8c5.7,2.2,11.5,3.9,17.5,5
			c0.1-0.2,0.1-0.5,0.2-0.7c-5.5,2.2-11.1,4-16.9,5.3c0.3,0.1,0.5,0.3,0.8,0.4c0.5-0.4,1.1-0.8,1.6-1.2c0.7-0.1,1.2-1,0.2-0.8
			c-1.4,0.3-2.4,0.8-3.3,2c-0.3,0.5,0.6,0.4,0.8,0.4c5.9-1.4,11.7-3.2,17.3-5.5c0.3-0.1,0.7-0.6,0.2-0.7c-5.9-1.1-11.6-2.7-17.2-4.9
			c-0.3,0.3-0.6,0.5-0.9,0.8c3.8,0.1,6.9,3.7,9.4,6.2c2.4,2.5,4.6,5.1,6.7,7.9c0.3,0.4,1.6,0,1.5-0.5c-1-4.1-2-8.1-3.2-12.1
			c-0.5-1.9-1-6.5-3.5-6.9c-1.5-0.3-2.7,0.9-3.4,2.1c-1.8,3.2-3,6.9-4.4,10.3C1150.3,108.4,1151.8,108.3,1152.1,107.8L1152.1,107.8z
			"/>
	</g>
	<g>
		<path d="M873.2,97.9c1-2.3,2-4.7,3-7c0.4-1,0.9-2.9,1.6-3.6c1.9-1.6,2.3,1.3,2.7,2.4c1.6,5.1,2.9,10.3,4.2,15.5
			c0.5-0.2,1-0.3,1.5-0.5c-2.6-3.5-5.4-6.8-8.6-9.8c-2.4-2.2-4.8-4.5-8.2-4.6c-0.2,0-1.6,0.5-0.9,0.8c5.7,2.2,11.5,3.9,17.5,5
			c0.1-0.2,0.1-0.5,0.2-0.7c-5.5,2.2-11.1,4-16.9,5.3c0.3,0.1,0.5,0.3,0.8,0.4c0.5-0.4,1.1-0.8,1.6-1.2c0.7-0.1,1.2-1,0.2-0.8
			c-1.4,0.3-2.4,0.8-3.3,2c-0.3,0.5,0.6,0.4,0.8,0.4c5.9-1.4,11.7-3.2,17.3-5.5c0.3-0.1,0.7-0.6,0.2-0.7c-5.9-1.1-11.6-2.7-17.2-4.9
			c-0.3,0.3-0.6,0.5-0.9,0.8c3.8,0.1,6.9,3.7,9.4,6.2c2.4,2.5,4.6,5.1,6.7,7.9c0.3,0.4,1.6,0,1.5-0.5c-1-4.1-2-8.1-3.2-12.1
			c-0.5-1.9-1-6.5-3.5-6.9c-1.5-0.3-2.7,0.9-3.4,2.1c-1.8,3.2-3,6.9-4.4,10.3C871.5,98.6,873,98.4,873.2,97.9L873.2,97.9z"/>
	</g>
	<g>
		<path d="M896.5,124.5c0.6-1.5,1.2-2.9,1.9-4.4c0.3-0.6,0.5-1.8,1-2.3c1.2-1,1.5,0.8,1.7,1.5c1,3.2,1.8,6.4,2.6,9.7
			c0.3-0.1,0.6-0.2,0.9-0.3c-1.6-2.2-3.4-4.3-5.3-6.1c-1.5-1.4-3-2.8-5.1-2.8c-0.1,0-1,0.3-0.6,0.5c3.5,1.4,7.1,2.4,10.9,3.1
			c0-0.1,0.1-0.3,0.1-0.4c-3.4,1.4-6.9,2.5-10.5,3.3c0.2,0.1,0.3,0.2,0.5,0.2c0.3-0.2,0.7-0.5,1-0.7c0.4-0.1,0.8-0.6,0.1-0.5
			c-0.9,0.2-1.5,0.5-2,1.2c-0.2,0.3,0.4,0.3,0.5,0.2c3.7-0.8,7.3-2,10.8-3.4c0.2-0.1,0.5-0.4,0.1-0.4c-3.7-0.7-7.2-1.7-10.7-3
			c-0.2,0.2-0.4,0.3-0.6,0.5c2.3,0,4.3,2.3,5.8,3.9c1.5,1.5,2.9,3.2,4.1,4.9c0.2,0.2,1,0,0.9-0.3c-0.6-2.5-1.2-5.1-2-7.6
			c-0.3-1.2-0.6-4-2.2-4.3c-0.9-0.2-1.7,0.6-2.1,1.3c-1.1,2-1.8,4.3-2.7,6.4C895.5,124.9,896.4,124.8,896.5,124.5L896.5,124.5z"/>
	</g>
	<g>
		<path d="M111.2,587.4c-0.3,0.9,0.6,1.2,1.4,1.2c1.5-0.1,1.9-1.7,2.4-2.8c2.6-7.2,3.9-14.7,5.3-22.2c-0.7,0.1-1.3,0.3-2,0.4
			c4.5,8.4,9.1,16.8,13.6,25.3c0.6-0.2,1.2-0.5,1.8-0.7c-10.3-6.6-22.1-10.2-34.4-10.6c-0.2,0.4-0.3,0.7-0.5,1.1
			c5.2-1,10.4-1.9,15.5-2.9c2.6-0.5,5.2-1,7.8-1.4c1.3-0.2,2.6-0.5,3.9-0.7c0.5-0.1,3.5-0.9,3.9-0.7c0.5,1.1,1,2.3,1.5,3.4
			c-0.8,0.7-1.6,1.2-2.5,1.6c-1.1,0.7-2.3,1.3-3.4,1.9c-2.3,1.3-4.6,2.5-6.9,3.8c-4.6,2.5-9.2,5-13.8,7.5c-0.7,0.4-0.2,1,0.5,0.8
			c1.4-0.2,2.8-0.5,4.1-0.7c0.9-0.2,1.6-1.3,0.3-1.1c-1.4,0.2-2.8,0.5-4.1,0.7c0.2,0.3,0.3,0.6,0.5,0.8c6.3-3.4,12.6-6.9,19-10.3
			c2.1-1.2,11.1-4.4,9.5-8.3c-0.5-1.4-2.2-1.4-3.4-1.3c-3.3,0.2-6.6,1.2-9.9,1.8c-7.3,1.3-14.7,2.7-22,4c-0.6,0.1-1.8,1.1-0.5,1.1
			c12,0.4,23.5,4,33.6,10.4c0.3,0.2,2.1-0.2,1.8-0.7c-4.5-8.4-9.1-16.8-13.6-25.3c-0.3-0.6-1.9-0.3-2,0.4c-0.7,4-1.4,7.9-2.3,11.8
			c-0.4,1.9-0.9,3.7-1.4,5.5c-0.2,0.8-0.5,1.6-0.7,2.4c-0.2,0.6-0.4,1.2-0.6,1.8c-0.3,0.6-0.3,1.1,0,1.8
			C113.4,586.5,111.4,586.8,111.2,587.4L111.2,587.4z"/>
	</g>
	<g>
		<path d="M50.5,525.4c0.8-2,1.7-3.9,2.5-5.9c0.3-0.8,0.7-2.5,1.4-3.1c1.6-1.4,2,1.1,2.2,2c1.3,4.3,2.5,8.7,3.5,13.1
			c0.4-0.1,0.8-0.3,1.2-0.4c-2.2-3-4.6-5.8-7.2-8.3c-2-1.9-4.1-3.8-6.9-3.9c-0.2,0-1.3,0.4-0.8,0.7c4.8,1.9,9.7,3.3,14.7,4.2
			c0-0.2,0.1-0.4,0.1-0.6c-4.6,1.9-9.4,3.4-14.2,4.5c0.2,0.1,0.5,0.2,0.7,0.3c0.5-0.3,0.9-0.6,1.4-1c0.6-0.1,1-0.9,0.2-0.7
			c-1.2,0.2-2,0.6-2.7,1.6c-0.3,0.4,0.5,0.4,0.7,0.3c5-1.1,9.8-2.7,14.6-4.6c0.3-0.1,0.6-0.5,0.1-0.6c-5-0.9-9.8-2.3-14.5-4.1
			c-0.3,0.2-0.5,0.4-0.8,0.7c3.2,0,5.8,3.1,7.9,5.2c2,2.1,3.9,4.3,5.6,6.7c0.2,0.3,1.3,0,1.2-0.4c-0.8-3.4-1.7-6.8-2.7-10.2
			c-0.4-1.6-0.8-5.5-3-5.8c-1.3-0.2-2.3,0.8-2.8,1.8c-1.5,2.7-2.5,5.8-3.7,8.7C49,525.9,50.3,525.8,50.5,525.4L50.5,525.4z"/>
	</g>
	<g>
		<path d="M73.3,492.7c0.8-2,1.7-3.9,2.5-5.9c0.3-0.8,0.7-2.5,1.4-3.1c1.6-1.4,2,1.1,2.2,2c1.3,4.3,2.5,8.7,3.5,13.1
			c0.4-0.1,0.8-0.3,1.2-0.4c-2.2-3-4.6-5.8-7.2-8.3c-2-1.9-4.1-3.8-6.9-3.9c-0.2,0-1.3,0.4-0.8,0.7c4.8,1.9,9.7,3.3,14.7,4.2
			c0-0.2,0.1-0.4,0.1-0.6c-4.6,1.9-9.4,3.4-14.2,4.5c0.2,0.1,0.5,0.2,0.7,0.3c0.5-0.3,0.9-0.6,1.4-1c0.6-0.1,1-0.9,0.2-0.7
			c-1.2,0.2-2,0.6-2.7,1.6c-0.3,0.4,0.5,0.4,0.7,0.3c5-1.1,9.8-2.7,14.6-4.6c0.3-0.1,0.6-0.5,0.1-0.6c-5-0.9-9.8-2.3-14.5-4.1
			c-0.3,0.2-0.5,0.4-0.8,0.7c3.2,0,5.8,3.1,7.9,5.2c2,2.1,3.9,4.3,5.6,6.7c0.2,0.3,1.3,0,1.2-0.4c-0.8-3.4-1.7-6.8-2.7-10.2
			c-0.4-1.6-0.8-5.5-3-5.8c-1.3-0.2-2.3,0.8-2.8,1.8c-1.5,2.7-2.5,5.8-3.7,8.7C71.8,493.3,73.1,493.2,73.3,492.7L73.3,492.7z"/>
	</g>
	<g>
		<path d="M1036.7,219.6c0,0-0.1-0.2-0.1-0.3c0-0.2-0.1-0.4,0.1-0.6c0.3-0.3,0.7-0.7,1.3-1.2c1.1-1,2.9-2.6,5.1-4.6
			c2.3-2,5.1-4.4,8.4-7.2c1.7-1.4,3.5-2.9,5.5-4.4c2-1.5,4.1-3.1,6.4-4.8c4.5-3.3,9.6-6.8,15.4-10.4c5.8-3.5,12.1-7.1,19.2-10.4
			c7.1-3.3,14.8-6.4,23.1-9.1c2.1-0.7,4.2-1.3,6.4-1.9c2.2-0.6,4.4-1.2,6.6-1.7c2.2-0.5,4.5-1,6.8-1.4c2.3-0.4,4.7-0.8,7.1-1.1
			c9.5-1.1,19.7-1.2,30,0.7c5.1,0.9,10.3,2.4,15.4,4.2c5.1,1.9,10.1,4.1,14.9,6.9c4.8,2.8,9.5,5.9,14,9.4c1.1,0.9,2.2,1.8,3.3,2.7
			c1.1,0.9,2.2,1.9,3.3,2.8c2.2,2,4.2,4.1,6.1,6.3c7.6,8.9,13.3,19.8,16.3,31.6c3,11.8,3.3,24.4,1.1,36.7
			c-2.1,12.3-6.5,24.2-12.2,35.5c-2.9,5.6-6,11.1-9.5,16.5c-3.5,5.3-7.2,10.5-11.1,15.6c-3.9,5.1-8,10-12.2,14.8
			c-4.3,4.8-8.6,9.5-13.1,14c-4.5,4.6-9.1,9-13.8,13.3c-4.7,4.3-9.5,8.5-14,12.9c-9.1,8.8-17.3,18.3-24.5,28.5
			c-7.2,10.2-13.3,21.1-17.9,32.4c-4.7,11.3-7.9,23-9.6,34.8c-1.7,11.8-1.8,23.5-0.3,34.9c1.4,11.3,4.3,22.3,8.5,32.3
			c8.3,20.1,21.8,36.8,37.3,47.8c7.7,5.5,16,9.7,24.2,12.5c8.2,2.8,16.4,4.3,24.1,4.7c7.7,0.4,15-0.2,21.6-1.3
			c6.6-1.2,12.5-2.9,17.8-4.8c10.4-3.9,18.1-8.3,23.1-11.5c2.5-1.6,4.4-2.9,5.7-3.8c1.3-0.9,1.9-1.3,1.9-1.3l0.2,0.2
			c0,0-0.6,0.5-1.9,1.4c-1.3,0.9-3.1,2.2-5.7,3.8c-5,3.2-12.6,7.7-23.1,11.7c-5.2,2-11.2,3.8-17.8,5c-6.6,1.2-14,1.9-21.8,1.5
			c-7.8-0.4-16.1-1.8-24.4-4.6c-8.3-2.8-16.6-6.9-24.5-12.5c-7.9-5.5-15.3-12.4-21.7-20.6c-6.5-8.1-12-17.4-16.3-27.6
			c-4.3-10.2-7.3-21.2-8.8-32.7c-1.5-11.5-1.4-23.4,0.2-35.3c1.6-11.9,4.9-23.8,9.5-35.3c4.7-11.5,10.8-22.5,18-32.9
			c7.2-10.4,15.6-20,24.7-28.9c4.6-4.5,9.4-8.7,14-13c4.6-4.3,9.2-8.7,13.7-13.3c4.5-4.5,8.8-9.2,13-13.9c4.2-4.8,8.2-9.7,12.1-14.7
			c3.8-5,7.5-10.2,10.9-15.4c3.4-5.3,6.5-10.7,9.3-16.3c5.6-11.1,9.9-22.8,11.9-34.8c2.1-11.9,1.8-24.2-1.2-35.5
			c-2.9-11.4-8.4-21.8-15.8-30.4c-1.8-2.1-3.8-4.2-5.8-6c-1.1-0.9-2.2-1.8-3.2-2.7c-1.1-0.9-2.2-1.7-3.3-2.6
			c-4.4-3.4-9-6.4-13.7-9.1c-9.3-5.4-19.2-9.3-29.2-11.3c-2.5-0.6-5-1-7.5-1.3c-2.5-0.3-5-0.6-7.4-0.7c-4.9-0.3-9.8-0.3-14.5,0.1
			c-2.4,0.2-4.7,0.4-7,0.8c-2.3,0.3-4.6,0.8-6.8,1.3c-2.2,0.5-4.4,1-6.6,1.6c-2.1,0.6-4.2,1.3-6.3,2c-8.3,2.7-15.7,6.3-22.6,9.9
			c-6.8,3.7-13.1,7.3-18.7,11c-5.7,3.6-10.7,7-15.2,10.3c-2.2,1.6-4.4,3.2-6.3,4.7c-2,1.5-3.8,2.9-5.5,4.2c-3.4,2.6-6.3,4.9-8.6,6.8
			c-2.3,1.9-4,3.4-5.2,4.4c-0.6,0.5-1,0.9-1.3,1.1c-0.2,0.1-0.4,0-0.6,0c-0.2-0.1-0.3-0.1-0.3-0.1L1036.7,219.6z"/>
	</g>
	<g>
		<path d="M113.9,262.7c0.6,3.4,0.8,6.8,1,10.2c0.2,3.4,0.4,6.8,0.7,10.2c0.6,6.8,1.2,13.5,2,20.3c1.6,13.5,3.7,26.9,6.3,40.2
			c2.6,13.3,5.8,26.5,9.6,39.6c3.8,13,8.3,25.9,13.7,38.3c5.4,12.4,11.6,24.5,19,35.9c3.7,5.7,7.7,11.1,12,16.3
			c4.3,5.2,9,10.1,14,14.7c5,4.5,10.3,8.7,16,12.3c5.7,3.7,11.7,6.8,17.9,9.4c6.2,2.6,12.7,4.6,19.3,6c3.3,0.7,6.6,1.2,10,1.7
			c3.4,0.4,6.7,0.7,10.1,0.8h-0.1c4-0.2,8.1-0.7,12.1-1.2c4-0.6,8-1.3,12-2.2c7.9-1.7,15.7-4,23.2-7c7.5-3.1,14.7-6.8,21.2-11.6
			c3.2-2.4,6.3-5.1,9-8c2.7-2.9,5.2-6.2,7.2-9.7c2-3.5,3.7-7.2,4.8-11c0.6-2,1.1-3.9,1.5-5.9c0.3-2,0.6-4,0.6-6
			c0.1-4-0.5-8.1-1.9-11.8c-1.4-3.8-3.7-7.2-6.4-10.1c-2.8-2.9-6.1-5.4-9.5-7.4c-3.5-2-7.2-3.7-11-5.1c-3.8-1.4-7.7-2.5-11.7-3.4
			c-4-0.8-8-1.5-12-1.8l0,0l0,0c-3.7-0.9-7.6-1.2-11.5-1.4c-3.9-0.2-7.7-0.2-11.6,0c-7.7,0.4-15.4,1.5-23,3.1
			c-7.6,1.6-15,3.7-22.4,6.3c-7.3,2.5-14.5,5.4-21.5,8.7c-7,3.2-13.9,6.8-20.6,10.6c-6.7,3.8-13.3,7.9-19.8,12.2
			c-6.4,4.3-12.8,8.8-18.9,13.5c-6.2,4.7-12.2,9.6-18.1,14.6c-5.9,5-11.7,10.2-17.4,15.4c-5.7,5.3-11.2,10.7-16.7,16.2
			c-2.7,2.8-5.4,5.5-8.1,8.4c-2.7,2.8-5.3,5.6-8,8.5c-5.2,5.7-10.5,11.4-15.4,17.4c-5,6-9.7,12.1-14,18.5c-4.4,6.4-8.4,13-11.8,20
			c-3.4,6.9-6.3,14.2-8.1,21.7c-1.9,7.5-2.6,15.3-1.8,23l-0.2,0c-1-7.7-0.4-15.6,1.3-23.2c1.7-7.6,4.5-15,7.8-22
			c3.4-7,7.3-13.8,11.6-20.3c4.3-6.5,9-12.7,13.9-18.8c4.9-6.1,10.1-11.9,15.3-17.7c5.2-5.8,10.6-11.4,16-17
			c5.5-5.5,11-11,16.7-16.3c5.7-5.3,11.5-10.5,17.4-15.5c5.9-5,12-9.9,18.3-14.6c6.2-4.7,12.6-9.2,19.1-13.5
			c6.5-4.3,13.2-8.3,20-12.2c6.8-3.8,13.8-7.3,20.9-10.5c7.1-3.2,14.4-6.1,21.8-8.5c7.4-2.5,14.9-4.5,22.6-6.1
			c7.6-1.5,15.4-2.6,23.2-2.9c3.9-0.2,7.8-0.2,11.7,0c3.9,0.2,7.8,0.6,11.6,1.5l-0.1,0c4.1,0.4,8.1,1,12.1,1.9c4,0.9,8,1.9,11.8,3.3
			c3.9,1.4,7.6,3,11.2,5.1c3.6,2.1,6.9,4.5,9.8,7.5c2.9,3,5.2,6.5,6.7,10.3c1.5,3.9,2.2,8,2.1,12.2c0,2.1-0.3,4.1-0.6,6.2
			c-0.4,2-0.8,4.1-1.4,6c-1.2,4-2.8,7.8-4.9,11.4c-2.1,3.6-4.5,6.9-7.3,10c-2.8,3.1-5.9,5.8-9.1,8.3c-3.3,2.5-6.8,4.7-10.4,6.7
			c-3.6,2-7.3,3.7-11.1,5.3c-7.6,3.1-15.5,5.4-23.5,7.1c-4,0.9-8,1.6-12.1,2.2c-4.1,0.6-8.1,1-12.3,1.3l0,0l0,0
			c-3.4-0.2-6.8-0.4-10.2-0.8c-3.4-0.4-6.8-1-10.1-1.7c-6.7-1.4-13.3-3.4-19.6-6.1c-6.3-2.6-12.4-5.8-18.2-9.6
			c-5.8-3.7-11.2-7.9-16.2-12.5c-5.1-4.6-9.8-9.6-14.1-14.9c-4.4-5.3-8.4-10.8-12.1-16.5c-7.4-11.4-13.7-23.6-19-36.2
			c-5.4-12.5-9.8-25.4-13.6-38.5c-3.8-13.1-7-26.3-9.6-39.7c-2.6-13.4-4.7-26.8-6.3-40.3c-0.8-6.8-1.5-13.5-2-20.3
			c-0.3-3.4-0.5-6.8-0.7-10.2c-0.2-3.4-0.4-6.8,0.1-10.2L113.9,262.7z"/>
	</g>
	<g>
		<path d="M98.2,542.5c0,0-0.3,0.2-0.7,0.6c-0.5,0.4-1.1,1-2,1.8c-0.8,0.8-1.9,1.7-3,2.9c-0.6,0.6-1.2,1.2-1.8,1.8
			c-0.6,0.7-1.3,1.3-1.9,2.1c-1.4,1.4-2.7,3.1-4.2,4.8c-0.7,0.9-1.4,1.8-2.2,2.7c-0.4,0.5-0.7,0.9-1.1,1.4c-0.4,0.5-0.7,1-1.1,1.5
			c-0.7,1-1.5,2-2.3,3c-0.7,1-1.5,2.1-2.2,3.2c-1.5,2.1-2.9,4.4-4.3,6.6c-0.7,1.1-1.4,2.2-2,3.4c-0.7,1.1-1.3,2.3-1.9,3.4
			c-1.3,2.2-2.4,4.6-3.5,6.7c-0.6,1.1-1,2.2-1.5,3.3c-0.5,1.1-1,2.1-1.4,3.2c-1,2-1.7,4.1-2.4,5.9c-0.4,0.9-0.7,1.8-1,2.6
			c-0.3,0.8-0.6,1.6-0.9,2.4c-0.5,1.5-0.9,2.9-1.3,3.9c-0.7,2.2-1.2,3.4-1.2,3.4s0.4-1.3,1-3.5c0.3-1.1,0.7-2.5,1.1-4
			c0.4-1.6,1.1-3.2,1.7-5.1c0.7-1.9,1.3-3.9,2.3-6c0.9-2.1,1.8-4.3,2.9-6.5c1.1-2.2,2.2-4.5,3.5-6.8c0.6-1.1,1.3-2.3,1.9-3.4
			c0.6-1.2,1.3-2.3,2-3.4c1.4-2.2,2.8-4.5,4.4-6.6c0.8-1.1,1.5-2.1,2.2-3.2c0.8-1,1.5-2,2.3-3c1.5-2,3.1-3.8,4.6-5.5
			c1.5-1.7,2.9-3.3,4.4-4.7c0.7-0.7,1.4-1.4,2-2c0.7-0.6,1.3-1.2,1.9-1.8c1.2-1.1,2.2-2,3.1-2.8C97.1,543.3,98.2,542.5,98.2,542.5z"
			/>
	</g>
	<g>
		<path d="M1163.5,174.6c0,0,1.8,0.1,5,0.7c3.1,0.6,7.6,1.6,12.8,3.3c2.6,0.9,5.4,1.8,8.3,3c2.9,1.2,5.9,2.5,9,4.1
			c3.1,1.6,6.1,3.4,9.2,5.3c3,2,6,4.1,8.8,6.5c1.4,1.1,2.7,2.4,4.1,3.7c1.3,1.3,2.6,2.6,3.8,3.9c1.2,1.4,2.4,2.7,3.5,4.1
			c0.5,0.7,1.1,1.4,1.6,2.1c0.5,0.7,1,1.4,1.5,2.1c0.5,0.7,1,1.4,1.4,2.1c0.4,0.7,0.9,1.4,1.3,2.2c0.9,1.4,1.6,2.9,2.3,4.3
			c0.7,1.4,1.3,2.8,1.9,4.2c0.6,1.4,1.1,2.7,1.5,4c1,2.6,1.5,5.1,2.1,7.2c0.4,2.2,0.8,4.1,1,5.7c0.4,3.2,0.6,5,0.6,5s-0.3-1.8-0.8-5
			c-0.3-1.6-0.7-3.5-1.2-5.6c-0.3-1.1-0.6-2.2-1-3.4c-0.3-1.2-0.8-2.4-1.2-3.7c-0.5-1.3-0.9-2.6-1.6-4c-0.6-1.3-1.2-2.8-1.9-4.1
			c-0.7-1.4-1.4-2.8-2.3-4.2c-0.4-0.7-0.9-1.4-1.3-2.1c-0.4-0.7-0.9-1.4-1.4-2.1c-0.5-0.7-1-1.4-1.5-2.1c-0.5-0.7-1.1-1.4-1.6-2.1
			c-1-1.4-2.3-2.7-3.4-4c-1.2-1.3-2.5-2.6-3.8-3.8c-1.3-1.2-2.6-2.5-4.1-3.6c-2.7-2.4-5.7-4.5-8.7-6.5c-3-1.9-6-3.8-9-5.3
			c-3-1.6-6-3-8.9-4.2c-2.9-1.3-5.6-2.3-8.2-3.2c-2.6-0.9-5-1.6-7.1-2.2c-2.1-0.6-4-1.1-5.6-1.4
			C1165.3,174.8,1163.5,174.6,1163.5,174.6z"/>
	</g>
	<g>
		<path d="M842.7,552.7c0,0-1.3,1.6-3.6,4.5c-0.6,0.7-1.2,1.5-1.9,2.4c-0.7,0.8-1.5,1.8-2.3,2.7c-0.8,1-1.7,2-2.6,3.1
			c-0.9,1.1-2,2.2-3,3.4c-1.1,1.2-2.1,2.4-3.3,3.6c-1.2,1.2-2.4,2.5-3.6,3.8c-0.6,0.7-1.2,1.3-1.9,2c-0.7,0.7-1.3,1.3-2,2
			c-1.3,1.3-2.7,2.7-4.1,4.1c-2.9,2.7-5.8,5.4-9,8.1c-1.6,1.4-3.1,2.7-4.8,4c-1.6,1.3-3.2,2.6-4.9,3.9c-1.7,1.2-3.4,2.5-5,3.7
			c-1.7,1.2-3.4,2.4-5.1,3.6c-0.9,0.6-1.7,1.2-2.5,1.7c-0.9,0.6-1.7,1.1-2.6,1.6c-1.7,1.1-3.4,2.2-5.1,3.2c-3.4,2-6.6,4-9.8,5.6
			c-1.6,0.8-3.1,1.7-4.6,2.5c-1.5,0.8-3,1.5-4.4,2.2c-2.8,1.5-5.4,2.6-7.7,3.7c-1.2,0.5-2.2,1-3.3,1.5c-1,0.4-2,0.8-2.8,1.2
			c-3.4,1.4-5.3,2.2-5.3,2.2s1.9-0.9,5.2-2.4c0.8-0.4,1.8-0.8,2.8-1.3c1-0.5,2.1-1,3.2-1.6c2.3-1.1,4.9-2.4,7.7-3.8
			c1.4-0.7,2.8-1.5,4.3-2.3c1.5-0.8,3-1.7,4.6-2.6c3.2-1.7,6.4-3.7,9.7-5.7c1.7-1,3.3-2.1,5-3.2c0.8-0.5,1.7-1.1,2.6-1.7
			c0.8-0.6,1.7-1.2,2.5-1.8c1.7-1.2,3.4-2.3,5.1-3.6c1.7-1.2,3.3-2.5,5-3.8c1.7-1.3,3.3-2.6,4.9-3.9c1.6-1.3,3.2-2.6,4.8-4
			c3.2-2.6,6.1-5.4,9-8c1.4-1.4,2.8-2.7,4.2-4c0.7-0.7,1.4-1.3,2-1.9c0.6-0.7,1.3-1.3,1.9-1.9c1.3-1.3,2.5-2.5,3.7-3.7
			c1.2-1.2,2.3-2.4,3.3-3.6c2.2-2.3,4.1-4.4,5.7-6.4c0.8-1,1.6-1.8,2.4-2.7c0.7-0.8,1.4-1.6,2-2.3
			C841.4,554.3,842.7,552.7,842.7,552.7z"/>
	</g>
	<g>
		<path d="M1278.1,576.9c0,0-0.1,0-0.3,0.1c-0.2,0.1-0.5,0.2-0.8,0.4c-0.7,0.4-1.7,1-2.9,1.8c-2.5,1.6-5.9,4.2-10.2,7
			c-2.2,1.4-4.5,2.9-7.1,4.3c-2.6,1.4-5.3,2.9-8.2,4.2c-2.9,1.4-6,2.6-9.2,3.7c-3.2,1.1-6.5,2-9.9,2.7c-3.4,0.6-6.8,1.1-10.2,1.3
			c-0.8,0-1.7,0.1-2.5,0.1c-0.8,0-1.7,0-2.5,0l-1.2,0l-1.2-0.1c-0.8-0.1-1.6-0.1-2.4-0.2c-1.6-0.1-3.2-0.4-4.7-0.6
			c-1.5-0.3-3-0.6-4.4-0.9c-1.4-0.4-2.8-0.8-4.1-1.1c-1.3-0.4-2.6-0.9-3.8-1.3c-1.2-0.4-2.4-0.9-3.4-1.4c-1.1-0.5-2.1-0.9-3-1.3
			c-1.8-1-3.5-1.7-4.8-2.5c-2.6-1.5-4-2.4-4-2.4s1.5,0.8,4.1,2.2c1.3,0.7,3,1.4,4.8,2.3c0.9,0.4,2,0.8,3.1,1.2
			c1.1,0.4,2.2,0.9,3.4,1.3c1.2,0.4,2.5,0.8,3.8,1.2c1.3,0.3,2.7,0.7,4.1,1c1.4,0.3,2.9,0.6,4.4,0.8c1.5,0.2,3.1,0.4,4.7,0.5
			c0.8,0,1.6,0.1,2.4,0.1l1.2,0.1l1.2,0c0.8,0,1.6,0,2.5,0c0.8,0,1.7-0.1,2.5-0.1c3.3-0.2,6.7-0.7,10-1.3c3.3-0.7,6.6-1.5,9.8-2.6
			c3.2-1.1,6.2-2.3,9.1-3.6c2.9-1.3,5.7-2.7,8.2-4.1c2.6-1.4,4.9-2.8,7.1-4.1c4.3-2.7,7.9-5.1,10.4-6.6c1.3-0.8,2.3-1.4,3-1.7
			c0.4-0.2,0.7-0.3,0.8-0.4C1278,576.9,1278.1,576.9,1278.1,576.9z"/>
	</g>
	<g>
		<path d="M1038.1,218.8c0,0-0.5,1.3-2.3,2c-1.8,0.9-4.4,2.2-8,3.8c-7.1,3.1-17.7,7.2-31.8,10.3c-7.1,1.5-15,2.7-23.7,3.2
			c-8.7,0.5-18.2,0-28.1-1.8c-5-0.9-10-2.2-15.1-3.9c-5.1-1.7-10.2-3.9-15.2-6.5c-10-5.2-19.8-12.3-28.6-21.1
			c-4.4-4.4-8.6-9.2-12.5-14.2c-3.9-5.1-7.6-10.6-11.1-16.3c-3.5-5.7-6.6-11.7-9.6-17.9c-1.4-3.1-2.9-6.3-4.2-9.5
			c-0.7-1.6-1.4-3.2-2-4.8c-0.6-1.6-1.3-3.3-1.9-4.9c-0.7-1.6-1.2-3.3-1.8-5c-0.6-1.7-1.2-3.4-1.8-5.1c-1.1-3.5-2-7-2.8-10.5
			c-1.6-7.1-2.6-14.5-2.7-21.9c-0.2-7.5,0.5-15.1,2.8-22.5c0.6-1.8,1.3-3.6,2-5.4c0.8-1.8,1.7-3.5,2.8-5.1c2.1-3.3,4.7-6.3,7.7-8.8
			c6-5.1,13.7-8,21.4-9.3l1.5-0.3c0.5-0.1,1-0.1,1.5-0.1c1,0,2,0,3,0c2,0.1,4,0.3,5.9,0.7c3.9,0.7,7.8,1.7,11.5,3.2
			c7.4,2.9,14.3,7.3,20.3,12.7c6,5.4,11.1,11.7,15.5,18.5c4.4,6.8,8,14.1,11.1,21.6c3.1,7.6,5.5,15.4,7.6,23.3
			c2,7.9,3.8,15.9,5.1,24c1.3,8.1,2.3,16.3,3.1,24.4c2.9,32.7,1.9,65.7-0.6,97.9c-1.3,16.1-3.1,32-5.2,47.7
			c-2.1,15.7-4.4,31.2-7.3,46.3c-0.8,3.8-1.4,7.6-2.3,11.3c-0.8,3.7-1.7,7.4-2.5,11.1c-0.9,3.7-1.8,7.3-2.7,11
			c-0.9,3.6-1.9,7.2-2.9,10.8c-4,14.3-8.5,28.1-13.6,41.3c-5.1,13.2-10.6,25.8-16.5,37.7c-6,11.9-12.4,23-18.9,33.5
			c-0.8,1.3-1.7,2.6-2.5,3.9c-0.8,1.3-1.6,2.6-2.5,3.8c-1.7,2.5-3.4,5-5,7.4c-1.7,2.4-3.4,4.7-5.1,7.1c-1.7,2.3-3.5,4.6-5.2,6.8
			c-6.9,8.9-13.9,16.9-20.8,24.2c-13.8,14.5-27,26-38.4,34.8c-11.4,8.8-20.9,14.9-27.4,19c-3.3,2.1-5.8,3.5-7.5,4.5
			c-1.7,1-2.6,1.5-2.6,1.5l-0.2-0.3c0,0,0.9-0.5,2.6-1.6c1.7-1,4.2-2.6,7.4-4.7c6.4-4.2,15.8-10.5,26.9-19.4
			c5.6-4.4,11.6-9.6,18-15.4c6.4-5.8,12.9-12.4,19.7-19.7c6.8-7.3,13.5-15.5,20.4-24.3c1.7-2.2,3.4-4.4,5.1-6.8
			c1.7-2.3,3.3-4.7,5-7.1c1.6-2.4,3.3-4.9,5-7.4c0.8-1.2,1.7-2.5,2.5-3.8c0.8-1.3,1.6-2.6,2.4-3.9c6.5-10.4,12.7-21.6,18.5-33.4
			c5.8-11.9,11.3-24.4,16.3-37.5c5.1-13.1,9.5-26.8,13.5-41c4-14.2,7.5-28.9,10.4-43.9c2.9-15,5.4-30.5,7.5-46.1
			c2.2-15.6,4-31.5,5.5-47.6c2.9-32.1,4.2-64.9,1.6-97.5c-1.4-16.3-3.6-32.6-7.6-48.3c-2-7.9-4.5-15.6-7.5-23.2
			c-3-7.5-6.6-14.8-11-21.5c-4.4-6.7-9.5-13-15.4-18.2c-5.9-5.3-12.7-9.6-20-12.4c-3.7-1.4-7.4-2.5-11.3-3.1
			c-1.9-0.3-3.8-0.5-5.8-0.6c-1,0-1.9,0-2.9,0c-0.5,0-1,0-1.4,0.1l-1.4,0.3c-7.6,1.4-14.9,4.3-20.6,9.2c-5.8,4.9-9.6,11.6-11.7,18.7
			c-2.1,7.1-2.7,14.6-2.4,21.9c0.3,7.3,1.3,14.5,2.9,21.5c0.8,3.5,1.7,7,2.8,10.3c0.6,1.7,1.2,3.3,1.8,5c0.6,1.7,1.2,3.3,1.8,4.9
			c0.6,1.6,1.3,3.3,1.9,4.9c0.7,1.6,1.4,3.2,2,4.8c1.3,3.2,2.8,6.3,4.2,9.4c3,6.1,6.1,12,9.5,17.7c3.4,5.6,7,11,10.9,16
			c3.9,5,8,9.7,12.3,14c8.6,8.6,18.1,15.5,27.9,20.6c9.8,5.1,19.9,8.4,29.6,10.2c9.7,1.8,19,2.3,27.6,2c8.6-0.4,16.4-1.5,23.4-2.9
			c14-2.9,24.5-6.9,31.5-9.9c3.5-1.5,6.1-2.8,7.9-3.7c0.9-0.5,1.6-0.7,2.1-0.8c0.5-0.1,0.9,0,0.9,0L1038.1,218.8z"/>
	</g>
</g>
</svg>
