<?xml version="1.0" encoding="utf-8"?>
<!-- Generator: Adobe Illustrator 19.0.0, SVG Export Plug-In . SVG Version: 6.00 Build 0)  -->
<svg version="1.1" id="Capa_1" xmlns="http://www.w3.org/2000/svg" xmlns:xlink="http://www.w3.org/1999/xlink" x="0px" y="0px"
	 viewBox="50 202.9 486 322.9" style="enable-background:new 50 202.9 486 322.9;" xml:space="preserve">
<style type="text/css">
	.st0{fill:#191919;}
</style>
<g>
	<path class="st0" d="M100.8,296.4c-2.8,0-5.2-2.3-5.2-5.2c0-2.8,2.3-5.2,5.2-5.2s5.2,2.3,5.2,5.2
		C105.9,294.1,103.6,296.4,100.8,296.4z M100.8,288.5c-1.5,0-2.8,1.2-2.8,2.8c0,1.5,1.2,2.7,2.8,2.7c1.5,0,2.8-1.2,2.8-2.7
		C103.5,289.8,102.3,288.5,100.8,288.5z"/>
	<path class="st0" d="M400.4,235.6c-2.8,0-5.2-2.3-5.2-5.2c0-2.8,2.3-5.2,5.2-5.2s5.2,2.3,5.2,5.2
		C405.6,233.3,403.3,235.6,400.4,235.6z M400.4,227.7c-1.5,0-2.8,1.2-2.8,2.8c0,1.5,1.2,2.7,2.8,2.7c1.5,0,2.8-1.2,2.8-2.7
		C403.2,228.9,401.9,227.7,400.4,227.7z"/>
	<path class="st0" d="M309.2,452.7c-2.8,0-5.2-2.3-5.2-5.2c0-2.8,2.3-5.2,5.2-5.2c2.8,0,5.2,2.3,5.2,5.2
		C314.4,450.4,312.1,452.7,309.2,452.7z M309.2,444.8c-1.5,0-2.8,1.2-2.8,2.8c0,1.5,1.2,2.7,2.8,2.7c1.5,0,2.8-1.2,2.8-2.7
		C312,446,310.7,444.8,309.2,444.8z"/>
	<path class="st0" d="M256,301c-2.8,0-5.2-2.3-5.2-5.2c0-2.8,2.3-5.2,5.2-5.2c2.8,0,5.2,2.3,5.2,5.2C261.1,298.7,258.8,301,256,301z
		 M256,293.1c-1.5,0-2.8,1.2-2.8,2.8c0,1.5,1.2,2.8,2.8,2.8c1.5,0,2.8-1.2,2.8-2.8C258.7,294.4,257.5,293.1,256,293.1z"/>
	<path class="st0" d="M267,467.8c-0.5,0-1-0.4-1.2-0.9l-2.8-10.3l-10.3-2.8c-0.5-0.1-0.9-0.6-0.9-1.2c0-0.5,0.4-1,0.9-1.2l10.3-2.8
		l2.8-10.3c0.1-0.5,0.6-0.9,1.2-0.9c0.5,0,1,0.4,1.2,0.9l2.8,10.3l10.3,2.8c0.5,0.1,0.9,0.6,0.9,1.2c0,0.5-0.4,1-0.9,1.2l-10.3,2.8
		l-2.8,10.3C268,467.4,267.5,467.8,267,467.8z M257.7,452.7l6.6,1.8c0.4,0.1,0.7,0.4,0.8,0.8l1.8,6.6l1.8-6.6
		c0.1-0.4,0.4-0.7,0.8-0.8l6.6-1.8l-6.6-1.8c-0.4-0.1-0.7-0.4-0.8-0.8l-1.8-6.6l-1.8,6.6c-0.1,0.4-0.4,0.7-0.8,0.8L257.7,452.7z"/>
	<path class="st0" d="M413.4,278.8c-0.5,0-1-0.4-1.2-0.9l-3.7-13.8l-13.8-3.7c-0.5-0.1-0.9-0.6-0.9-1.2c0-0.5,0.4-1,0.9-1.2
		l13.8-3.7l3.7-13.8c0.1-0.5,0.6-0.9,1.2-0.9l0,0c0.5,0,1,0.4,1.2,0.9l3.7,13.8l13.8,3.7c0.5,0.1,0.9,0.6,0.9,1.2
		c0,0.5-0.4,1-0.9,1.2l-13.8,3.7l-3.7,13.8C414.4,278.4,413.9,278.8,413.4,278.8z M399.6,259.2l10.2,2.7c0.4,0.1,0.7,0.4,0.8,0.8
		l2.7,10.2l2.7-10.2c0.1-0.4,0.4-0.7,0.8-0.8l10.2-2.7l-10.2-2.7c-0.4-0.1-0.7-0.4-0.8-0.8l-2.7-10.2l-2.7,10.2
		c-0.1,0.4-0.4,0.7-0.8,0.8L399.6,259.2z"/>
	<path class="st0" d="M253.1,245.8c-0.4,0-0.8-0.3-0.9-0.7l-2.1-7.9l-7.9-2.1c-0.4-0.1-0.7-0.5-0.7-0.9c0-0.4,0.3-0.8,0.7-0.9
		l7.9-2.1l2.1-7.9c0.1-0.4,0.5-0.7,0.9-0.7l0,0c0.4,0,0.8,0.3,0.9,0.7l2.1,7.9l7.9,2.1c0.4,0.1,0.7,0.5,0.7,0.9
		c0,0.4-0.3,0.8-0.7,0.9l-7.9,2.1l-2.1,7.9C253.8,245.5,253.5,245.8,253.1,245.8z M246,234.2l5.1,1.4c0.3,0.1,0.6,0.3,0.7,0.7
		l1.4,5.1l1.4-5.1c0.1-0.3,0.3-0.6,0.7-0.7l5.1-1.4l-5.1-1.4c-0.3-0.1-0.6-0.3-0.7-0.7l-1.4-5.1l-1.4,5.1c-0.1,0.3-0.3,0.6-0.7,0.7
		L246,234.2z"/>
	<circle class="st0" cx="350.2" cy="272.2" r="1.9"/>
	<circle class="st0" cx="282.2" cy="237.4" r="1.9"/>
	<circle class="st0" cx="161.8" cy="243.8" r="1.9"/>
	<circle class="st0" cx="338.7" cy="270.3" r="1.9"/>
	<circle class="st0" cx="274.3" cy="227.8" r="1.9"/>
	<circle class="st0" cx="153" cy="232.3" r="1.9"/>
	<circle class="st0" cx="421.5" cy="296" r="1.9"/>
	<circle class="st0" cx="96.8" cy="319.4" r="1.9"/>
	<circle class="st0" cx="82.3" cy="323.1" r="1.9"/>
	<circle class="st0" cx="177.3" cy="232.3" r="1.9"/>
	<circle class="st0" cx="338.6" cy="319.4" r="1.9"/>
	<circle class="st0" cx="321.2" cy="431.7" r="1.9"/>
	<circle class="st0" cx="338" cy="447.5" r="1.9"/>
	<circle class="st0" cx="474.7" cy="305.7" r="1.9"/>
	<circle class="st0" cx="284.9" cy="225.9" r="1.9"/>
	<circle class="st0" cx="253.9" cy="321.2" r="1.9"/>
	<circle class="st0" cx="487.7" cy="305.7" r="1.9"/>
	<circle class="st0" cx="91.4" cy="332.1" r="1.9"/>
	<circle class="st0" cx="478.5" cy="294.1" r="1.9"/>
	<path class="st0" d="M345.9,284.6c-0.1-0.8-0.5-1.5-1.2-2c-1.6-1.2-4.5-1.2-5.7-1.1c-1.5-3.2-5-5.2-8.7-4.7
		c-3.7,0.5-6.5,3.2-7.3,6.7c-5,0.9-7.5,2.3-7.3,4.1c0.1,0.5,0.4,1.2,1.4,1.6c1.2,0.5,3.7,0.7,6.7,0.7c0.1,0,0.3,0,0.4,0
		c0.5,0.7,1.1,1.4,1.8,1.9c1.5,1.2,3.3,1.8,5.2,1.8c0.3,0,0.7,0,1.1-0.1c2.2-0.3,4.3-1.4,5.6-3.2c0.5-0.6,0.8-1.2,1.1-1.9
		c2.6-0.5,4.7-1.2,5.7-2C345.8,285.8,345.9,285.1,345.9,284.6z M330.6,279.1c0.3,0,0.5,0,0.7,0c3,0,5.6,2.3,6,5.3
		c0.1,0.7,0,1.3-0.1,2c-3.5,0.6-7.8,1-11.5,1.2c-0.2-0.5-0.4-1.1-0.5-1.7c0-0.4-0.1-0.7,0-1.1c0-0.1,0-0.2,0-0.3
		C325.6,281.8,327.8,279.5,330.6,279.1z M318.7,287.2c0.8-0.4,2.5-0.9,4.2-1.3c0,0.1,0,0.2,0,0.3c0.1,0.5,0.2,1,0.3,1.4
		C321.3,287.6,319.6,287.5,318.7,287.2z M332.1,291.2c-1.6,0.2-3.2-0.2-4.5-1.2c0,0-0.1-0.1-0.1-0.1c2.8-0.1,5.8-0.4,8.5-0.8
		C335,290.2,333.7,291,332.1,291.2z M339.8,285.9c0.1-0.6,0-1.2,0-1.8c0-0.1,0-0.2-0.1-0.3c1.2,0,2.8,0.1,3.5,0.6
		c0.1,0.1,0.2,0.1,0.2,0.2C342.9,285.1,341.6,285.5,339.8,285.9z"/>
	<path class="st0" d="M304.1,417.7h-2.9v-2.9c0-0.5-0.4-0.9-0.9-0.9c-0.5,0-0.9,0.4-0.9,0.9v2.9h-2.9c-0.5,0-0.9,0.4-0.9,0.9
		c0,0.5,0.4,0.9,0.9,0.9h2.9v2.9c0,0.5,0.4,0.9,0.9,0.9c0.5,0,0.9-0.4,0.9-0.9v-2.9h2.9c0.5,0,0.9-0.4,0.9-0.9
		C304.9,418.1,304.5,417.7,304.1,417.7z"/>
	<path class="st0" d="M493.4,348.9h-2.9V346c0-0.5-0.4-0.9-0.9-0.9c-0.5,0-0.9,0.4-0.9,0.9v2.9h-2.9c-0.5,0-0.9,0.4-0.9,0.9
		c0,0.5,0.4,0.9,0.9,0.9h2.9v2.9c0,0.5,0.4,0.9,0.9,0.9c0.5,0,0.9-0.4,0.9-0.9v-2.9h2.9c0.5,0,0.9-0.4,0.9-0.9
		C494.2,349.3,493.9,348.9,493.4,348.9z"/>
	<path class="st0" d="M182.9,264.6h-2.9v-2.9c0-0.5-0.4-0.9-0.9-0.9c-0.5,0-0.9,0.4-0.9,0.9v2.9h-2.9c-0.5,0-0.9,0.4-0.9,0.9
		c0,0.5,0.4,0.9,0.9,0.9h2.9v2.9c0,0.5,0.4,0.9,0.9,0.9c0.5,0,0.9-0.4,0.9-0.9v-2.9h2.9c0.5,0,0.9-0.4,0.9-0.9
		C183.8,265,183.4,264.6,182.9,264.6z"/>
</g>
<g>
	<g>
		<path class="st0" d="M315.6,314.3c-4.7-1.2-11.4,1-15.6,8.6c-4.9,8.7-5.6,17.7-6.1,23.1c-0.1,1.6-0.3,3.1-0.4,3.5
			c-0.9,1.6-13.4,12.8-20.1,18.8c-4.8,4.3-6.7,6-7.3,6.6c-1.5,0.6-11.8,2-21.5,3c0.2-11.2,1.6-22.2,2.5-29.6l0.1-0.6
			c1.4-10.7-8-17.8-9.4-18.8c3.7-12.8,1.2-22.4-2.5-27.1c-2.9-3.6-6-4.6-8-4.8c2.1-3.1,3.8-5.7,4.4-8c1.3-5-1.2-10.8-6.3-14.8
			c-4.9-3.9-10.9-5-15.7-2.7c-1.4-0.4-5,0-16.4,7.4c-7.6,4.9-16,11.2-20.9,15.8c-8.7,8-7.6,16.6-6.9,19.4c-3.8,2.7-7.7,5.1-11.7,6.9
			c-1,0.5-2,1-3,1.5c0.2-2.6,1-7.3,3.8-11.6c3.5-5.3,9.2-27.3,5.4-39.1c-1.2-3.7-3.2-6.2-6-7.3c-9.8-3.9-15.7,9.2-20.4,19.8
			c-1.8,3.9-3.4,7.6-5.1,10.1c-2,3-4.3,6.1-6.6,9.2c-4.8,6.4-9.7,13.1-11.7,18.4c-2.8,7.5-14,45.5-19.3,65.7
			c-1.9,7.4-1.7,17.2-1.4,29.7c0.5,20.7,1.1,46.5-8,75.6c-0.2,0.6,0.2,1.3,0.8,1.5c0.1,0,0.2,0.1,0.4,0.1c0.5,0,1-0.3,1.1-0.8
			c9.2-29.4,8.6-55.4,8.1-76.3c-0.3-11.8-0.5-22,1.4-29c5.3-20.1,16.4-58,19.3-65.4c1.3-3.4,3.9-7.5,6.9-11.7
			c0.2,0.2,0.5,0.4,0.8,0.5c0.1,0,10.1,1.2,14.4,3.9c0.2,0.1,0.4,0.2,0.6,0.2c0.4,0,0.8-0.2,1-0.6c0.4-0.6,0.2-1.3-0.4-1.7
			c-4.4-2.8-13.4-4-15.1-4.2c1-1.4,2.1-2.9,3.2-4.3c2.3-3.1,4.6-6.3,6.7-9.3c1.7-2.6,3.4-6.4,5.2-10.3c2.5,1.1,8.1,3.3,11.9,3.3
			c0.7,0,1.4-0.1,2-0.3c4.1-1.5,6.9-11.6,7.4-13.6c0.2-0.6-0.2-1.3-0.9-1.5c-0.6-0.2-1.3,0.2-1.5,0.9c-1.2,4.5-3.8,11.2-5.9,11.9
			c-2.2,0.8-8.2-1.2-12.1-2.9c4.3-9.5,9.3-19.2,16.4-16.4c2.1,0.8,3.6,2.8,4.6,5.7c3.5,11-1.9,32.1-5.1,37c-3.8,5.7-4.2,12-4.3,14.2
			c-22.3,11.9-28.8,24.6-29.1,25.1c-0.3,0.6-0.1,1.3,0.5,1.6c0.2,0.1,0.4,0.1,0.5,0.1c0.4,0,0.9-0.2,1.1-0.7
			c0.1-0.1,7.6-14.6,33.4-26.8c19-9,36.4-28.6,46.8-40.3c3.9-4.4,7.3-8.3,8.6-8.9c4.8-2.5,10.2-0.5,13.7,2.2
			c4.3,3.4,6.5,8.4,5.4,12.3c-0.6,2.3-2.5,5.1-5,8.7c-5.6,8.1-14,20.4-14.7,39.5c0,0.7,0.5,1.2,1.2,1.2c0.7,0,1.2-0.5,1.2-1.2
			c0.6-17.7,7.9-29,13.6-37.3c0,0,0,0,0,0c0,0,4.1-0.6,7.7,4c5.7,7.2,4.3,20.4,0.3,30.2c-3.9,9.5-1.8,27.3-1.7,28.1
			c0.1,0.6,0.6,1.1,1.2,1.1c0,0,0.1,0,0.1,0c0.7-0.1,1.1-0.7,1-1.3c0-0.2-2.1-17.9,1.5-26.9c0.4-1,0.8-2,1.1-3
			c2.2,1.8,8.8,7.9,7.8,16.1l-0.1,0.6c-1.4,10.9-3.7,29.1-1.8,45c0.1,0.6,0.6,1.1,1.2,1.1c0,0,0.1,0,0.1,0c0.7-0.1,1.1-0.7,1.1-1.3
			c-0.5-4-0.7-8.2-0.7-12.4c22.2-2.3,23-3.3,23.3-3.7c0.4-0.4,3.7-3.4,7.2-6.5c13.5-12.1,20-18.1,20.7-19.6c0.3-0.8,0.5-2.2,0.6-4.3
			c0.4-5.2,1.2-13.9,5.8-22.2c3.6-6.5,9.1-8.4,12.9-7.4c1.8,0.5,3,1.6,3,2.8c0,2-0.7,8.4-1.7,15.9c-1.1,0.1-6.4,0.2-6.9-2.9
			c-0.5-3.1,1-10.7,1.6-13.4c0.2-0.6-0.3-1.3-0.9-1.4c-0.6-0.1-1.3,0.3-1.4,0.9c-0.1,0.4-2.3,10.1-1.6,14.3c0.7,4.4,5.9,4.9,8.4,4.9
			c0.2,0,0.4,0,0.5,0c-1.6,11.9-3.9,25.8-5.6,29.7c-2.5,5.9-17.9,18.7-31.3,28c-10.4,7.3-45.6,36.1-56.2,45.1
			c-2.8,2.4-6.9,5.2-11.6,8.6c-12.1,8.5-27.2,19-33.8,30.4c-8.6,14.7-13.8,16.9-13.9,17c-0.6,0.2-0.9,0.9-0.7,1.5
			c0.2,0.5,0.6,0.8,1.1,0.8c0.1,0,0.3,0,0.4-0.1c0.6-0.2,6.2-2.4,15.2-18c6.4-10.9,21.2-21.3,33.1-29.6c4.8-3.4,9-6.3,11.8-8.7
			c10.5-9,45.6-37.6,56-44.9c10.5-7.4,29-21.8,32.1-29.1c3-7,7.7-43.5,7.7-48.9C320.4,317.1,318.5,315.1,315.6,314.3z M199.7,281.2
			c-7.7,8.6-19.2,21.6-32.2,31.2c-0.5-3-0.5-9.7,6.4-16c8.9-8.3,25-19.1,31.9-21.9C204.3,276,202.3,278.2,199.7,281.2z"/>
		<path class="st0" d="M221.7,289.5c0.2,0.3,0.6,0.4,0.9,0.4c0.3,0,0.5-0.1,0.8-0.3c0.5-0.4,0.6-1.2,0.2-1.7
			c-4.9-6-13.4-8.2-13.7-8.3c-0.6-0.2-1.3,0.2-1.5,0.9c-0.2,0.6,0.2,1.3,0.9,1.5C209.4,282.1,217.3,284.2,221.7,289.5z"/>
	</g>
	<g>
		<path class="st0" d="M297.6,333.8c0.6-0.2,1-0.8,0.8-1.5c0-0.2-5.1-17.5-19.9-16.2c-0.1,0-0.1,0-0.2,0c-0.6-1.4-2.1-4.2-4.4-4.2
			c-0.6,0-1.4,0.2-2.3,1c-1.8,1.9-2.8,6.3-2.6,12.4c0.2,8.2,3.6,16.2,3.8,16.5c0,0,0,0,0,0c0.2,8.8,0.8,17.5,1.2,18.7
			c0.6,2,3,5.3,3.3,5.7c0.2,0.3,0.6,0.5,1,0.5c0.2,0,0.5-0.1,0.7-0.2c0.5-0.4,0.6-1.1,0.3-1.7c-0.7-0.9-2.5-3.6-2.9-4.9
			c-0.5-1.6-1.6-22.2-1-32.2c0.5-9,2-9.1,3.5-9.3c12.8-1.2,17.2,13.8,17.4,14.5C296.3,333.6,296.9,334,297.6,333.8z"/>
		<path class="st0" d="M514.4,495.8c-7.6-19.7-15.2-46.8-14.9-62.6c0.3-15.6-0.1-24.7-11.9-45.8c-8.4-15-12.6-35.6-15.1-47.9
			c-0.9-4.5-1.6-8-2.3-9.9c-1.3-3.8-3-6.6-4.7-9.4c-3.1-5-6.2-10.1-7.3-22.1c-0.2-2.8-0.4-5.3-0.6-7.6c-0.1-1.4-0.2-2.6-0.3-3.8
			c0.2-1.1,1.2-8.2,0-14.4c-0.6-2.9-2.4-4.7-4.9-4.8c-3-0.2-6.8,2.3-8.6,7.3c-0.8,0.6-1.6,1.3-2.4,2.2c-5.7,6.5-8.8,20-7.2,31.3
			c2.4,16.9,3.5,30.7,3.3,41.5c-4.8-0.3-8.4-2.7-9.7-3.9c-3-7.2-4.6-12.9-6.1-18.5c-1.5-5.3-2.8-10.3-5.3-16.1
			c-5.3-12.1-29.9-23.5-36.2-23.8c-6.7-0.3-16.5,10.4-17.4,13.4c-0.6,2.2-0.9,11.5-1,15c-2.1,0.1-4.4,1.1-6.8,3
			c-4.7,3.7-9.1,10.3-9.4,14.1c-0.2,3.5,0.4,6.6,1,8.4l-0.2,0c-6.2-0.3-9.7,2.2-11.5,4.3c-2.3,2.7-3.4,6.7-2.7,10.1
			c0.8,3.9,3.4,16.9,4.6,22.9c-9.8-7.4-22.5-16-23.3-16.5c-0.6-0.4-1.3-0.2-1.7,0.3c-0.4,0.6-0.2,1.3,0.3,1.7
			c0.2,0.2,24,16.3,31.6,23.2c0.2,0.2,0.5,0.3,0.8,0.3c0.3,0,0.6-0.1,0.9-0.4c0.4-0.5,0.4-1.3-0.1-1.7c-1.5-1.3-3.5-3-5.8-4.8
			c-0.6-3-4.2-20.9-5.2-25.6c-0.4-2.1-0.1-5.4,2.2-8.1c2.1-2.5,5.4-3.7,9.6-3.5l0.2,0c9.3,0.4,31.2,1.5,34.1,6.1
			c2.5,4,14.4,25.7,21.1,38c-1.7-0.1-4,0-6.1,1.4c-3.8,2.4-3.1,8.1-0.6,12.9c-6.7-4.9-16-15.5-27.6-31.6c-0.3-0.4-0.7-0.6-1.2-0.5
			c-0.1,0-9,1.5-19.5-1.7c-0.6-0.2-1.3,0.2-1.5,0.8c-0.2,0.6,0.2,1.3,0.8,1.5c9.4,2.9,17.4,2.2,19.8,1.9c0.1,0.1,0.2,0.3,0.3,0.4
			c-1.6,1.4-6.2,4.8-15.9,5.1c-0.7,0-1.2,0.6-1.2,1.2c0,0.6,0.6,1.2,1.2,1.2c0,0,0,0,0,0c9.9-0.3,15.1-3.7,17.2-5.5
			c4.8,6.6,9,11.9,12.7,16.1c-1.4,2.7-7.9,13-23.2,16.2c-0.7,0.1-1.1,0.8-0.9,1.4c0.1,0.6,0.6,1,1.2,1c0.1,0,0.2,0,0.2,0
			c15.2-3.2,22.2-12.8,24.4-16.6c8.3,9.4,13.7,13.1,17.4,14.3c1.8,1.4,4,2.4,6,2.4c0.9,0,1.8-0.2,2.7-0.7c5.1-2.8,2.9-7.7,1.5-11
			c-0.1-0.3-0.3-0.6-0.4-0.9c-0.1-0.2-0.2-0.5-0.3-0.7c0.3,0.1,0.6,0.2,0.8,0.3c0.5,0.1,0.9,0.2,1.4,0.2c1.3,0,2.5-0.5,3.4-1
			c2.6-1.5,2.7-5.7,2-9.4c0.8-2.7,0.7-5.9-0.5-8.9c-0.4-1.1-1.5-4-2.8-7.7c-1.4-3.9-3.2-8.8-5.1-13.8c4.3,5.3,8.9,8.3,13.2,8.3
			c0.5,0,1,0,1.5-0.1c0.1,0,0.1,0,0.2,0c0.1,0.1,0.3,0.3,0.4,0.4c1.4,1.3,2.7,1.9,3.9,1.9c0.1,0,0.2,0,0.3,0c1.7-0.1,3-0.9,3.8-2.2
			c1.4-2.3,1.2-5.9-0.6-10.6c-0.6-1.7-1.2-3-1.6-4.1c2,1.1,4.8,2.2,8.1,2.3c-0.1,3.3-0.4,6.4-0.7,9.1c-2.2,16.2,3.8,25.7,4,26.1
			c0.4,0.6,1.1,0.7,1.7,0.4c0.6-0.4,0.7-1.1,0.4-1.7c-0.1-0.1-5.7-9.2-3.6-24.5c2.2-16.4-0.3-38.5-2.5-53.7
			c-1.5-10.6,1.4-23.5,6.6-29.4c0.6-0.7,1.3-1.4,2.2-1.9c0,0,0,0,0,0c0,0,0.7-0.4,1.7-0.8c0.4-0.1,0.7-0.2,1.1-0.2c0,0,0,0,0,0
			c1.2,0,2.2,0.1,2.9,0.4c1.5,0.9,2.6,2.9,3.2,6c0.3,2.1,0.5,5,0.8,8.7c0.2,2.2,0.3,4.8,0.6,7.6c1.1,12.5,4.4,17.9,7.6,23.1
			c1.7,2.7,3.3,5.3,4.5,8.9c0.6,1.8,1.3,5.2,2.2,9.6c2.6,12.4,6.8,33.2,15.4,48.6c11.5,20.7,11.9,29.1,11.6,44.6
			c-0.3,16.2,7.4,43.6,15.1,63.6c0.2,0.5,0.6,0.8,1.1,0.8c0.1,0,0.3,0,0.4-0.1C514.4,497.1,514.7,496.4,514.4,495.8z M411,370.9
			c1.4,3.8,2.4,6.6,2.8,7.7c0.3,0.8,0.5,1.5,0.6,2.3c-2-3-6-5.9-9.4-4.6c-2.5,1-3.7,2.9-4.3,4.9c-6.8-12.4-15.9-29-18.1-32.5
			c-3.2-5-18.6-6.4-33.5-7.1c-0.4-1.3-1.4-4.6-1.1-8.3c0.2-2.8,4-8.9,8.5-12.4c1.7-1.3,4.1-2.8,6.3-2.4c0.8,0.1,1.9,0.3,3.1,0.5
			c7.4,1.2,24.8,4,28.1,9C397.1,332.7,406.5,358.5,411,370.9z M423.9,344.1c-3.3,0.6-6.6,3.3-6.6,7.2c0,3.1,1.7,7.5,4,10.8
			c-5.9-0.1-12.8-7.3-18-19c0,0,0,0,0,0c-3-7.7-5.7-14.2-7.3-16.5c-2.3-3.4-8.9-5.8-15.8-7.4l-6.9-6.9c-0.5-0.5-1.2-0.5-1.7,0
			c-0.5,0.5-0.5,1.2,0,1.7l4.3,4.2c-3.5-0.7-6.9-1.2-9.5-1.7c-0.7-0.1-1.4-0.2-2-0.3c0.1-5.3,0.4-13,0.9-14.6
			c0.6-2,9.4-11.9,14.9-11.6c5.7,0.3,29.2,11.2,34.1,22.3c2.4,5.6,3.8,10.5,5.2,15.7c1.3,4.9,2.7,9.9,5.1,16
			C424.2,344,424.1,344.1,423.9,344.1z"/>
		<path class="st0" d="M348.9,437.5c-6.8-12.5-15.8-20.3-22.9-26.6c-2.2-1.9-4.3-3.7-6-5.4c-7-7-23.4-21.9-23.5-22
			c-0.5-0.4-1.3-0.4-1.7,0.1c-0.4,0.5-0.4,1.3,0.1,1.7c0.2,0.1,16.4,14.9,23.5,21.9c1.8,1.7,3.9,3.6,6.1,5.5
			c7,6.1,15.8,13.8,22.4,25.9c5.8,10.6,22,32.9,65.4,62.6c0.2,0.1,0.4,0.2,0.7,0.2c0.4,0,0.8-0.2,1-0.5c0.4-0.5,0.2-1.3-0.3-1.7
			C382.2,477.8,358.6,455.3,348.9,437.5z"/>
		<path class="st0" d="M413.2,418.6c-0.6-0.2-1.3,0.2-1.5,0.9c-0.2,0.6,0.2,1.3,0.9,1.5c0.3,0.1,33.1,9.3,40.5,42.8
			c0.1,0.6,0.6,0.9,1.2,0.9c0.1,0,0.2,0,0.3,0c0.6-0.1,1.1-0.8,0.9-1.4C447.8,428.2,413.6,418.7,413.2,418.6z"/>
		<path class="st0" d="M370.4,367.7c0.2-0.2,5.3-5.8,6-13.2c0.1-0.7-0.4-1.3-1.1-1.3c-0.7-0.1-1.3,0.4-1.3,1.1
			c-0.7,6.6-5.4,11.7-5.4,11.8c-0.4,0.5-0.4,1.2,0.1,1.7c0.2,0.2,0.5,0.3,0.8,0.3C369.9,368,370.2,367.9,370.4,367.7z"/>
		<path class="st0" d="M390.2,332.5c-0.7,0-1.2,0.5-1.2,1.2c0,2-2.9,6-4.8,8.1c-0.4,0.5-0.4,1.3,0.1,1.7c0.2,0.2,0.5,0.3,0.8,0.3
			c0.3,0,0.7-0.1,0.9-0.4c0.6-0.6,5.4-6.1,5.4-9.7C391.4,333,390.9,332.5,390.2,332.5z"/>
		<path class="st0" d="M405.6,311.7c-1.7,2.6-7.8,8.9-7.9,9c-0.5,0.5-0.5,1.2,0,1.7c0.2,0.2,0.5,0.3,0.8,0.3c0.3,0,0.6-0.1,0.9-0.4
			c0.3-0.3,6.3-6.5,8.2-9.3c0.4-0.6,0.2-1.3-0.3-1.7C406.7,311,405.9,311.2,405.6,311.7z"/>
		<path class="st0" d="M343.7,348.4c0.6-0.3,0.8-1,0.6-1.6c-0.3-0.6-1-0.9-1.6-0.6c-0.2,0.1-5.3,2.6-4.7,10.3
			c0.1,0.6,0.6,1.1,1.2,1.1c0,0,0.1,0,0.1,0c0.7-0.1,1.2-0.6,1.1-1.3C339.8,350.4,343.5,348.5,343.7,348.4z"/>
		<path class="st0" d="M363.5,322.3c-8.5,4.3-10.5,13.5-10.5,13.9c-0.1,0.6,0.3,1.3,0.9,1.4c0.1,0,0.2,0,0.2,0c0.6,0,1.1-0.4,1.2-1
			c0-0.1,1.9-8.4,9.3-12.2c0.6-0.3,0.8-1,0.5-1.6C364.8,322.2,364,322,363.5,322.3z"/>
		<path class="st0" d="M384.8,296.7c-5.8,1.6-10.3,8.5-10.5,8.8c-0.4,0.6-0.2,1.3,0.4,1.7c0.2,0.1,0.4,0.2,0.7,0.2
			c0.4,0,0.8-0.2,1-0.5c0-0.1,4.2-6.4,9.2-7.8c0.6-0.2,1-0.8,0.8-1.5C386.1,296.9,385.4,296.5,384.8,296.7z"/>
	</g>
</g>
</svg>
