<?xml version="1.0" encoding="utf-8"?>
<!-- Generator: Adobe Illustrator 19.0.0, SVG Export Plug-In . SVG Version: 6.00 Build 0)  -->
<svg version="1.1" id="Capa_1" xmlns="http://www.w3.org/2000/svg" xmlns:xlink="http://www.w3.org/1999/xlink" x="0px" y="0px"
	 viewBox="0 0 147.4 214" style="enable-background:new 0 0 147.4 214;" xml:space="preserve">
<style type="text/css">
	.st0{fill:#F3F3F3;stroke:#343434;stroke-miterlimit:10;}
	.st1{clip-path:url(#XMLID_134_);fill:#F3F3F3;stroke:#343434;stroke-miterlimit:10;}
	.st2{fill:#F3F3F3;stroke:#343435;stroke-miterlimit:10;}
	.st3{fill:#FFFFFF;stroke:#343435;stroke-miterlimit:10;}
	.st4{fill:none;stroke:#343435;stroke-miterlimit:10;}
	.st5{fill:#343435;}
	
		.st6{fill:none;stroke:#343434;stroke-width:0.5;stroke-linecap:round;stroke-linejoin:round;stroke-miterlimit:10;stroke-dasharray:5,3;}
</style>
<g id="XMLID_23_">
	<path id="XMLID_28_" class="st0" d="M494.4,56.2l-23.9,16c-1.3,0.9-3.1,0.5-4-0.8l-10.2-15.2c-0.9-1.3-0.5-3.1,0.8-4l23.9-16
		c1.3-0.9,3.1-0.5,4,0.8l10.2,15.2C496.1,53.5,495.7,55.3,494.4,56.2z"/>
	<g id="XMLID_24_">
		<defs>
			<path id="XMLID_25_" d="M494.4,56.2l-23.9,16c-1.3,0.9-3.1,0.5-4-0.8l-10.2-15.2c-0.9-1.3-0.5-3.1,0.8-4l23.9-16
				c1.3-0.9,3.1-0.5,4,0.8l10.2,15.2C496.1,53.5,495.7,55.3,494.4,56.2z"/>
		</defs>
		<use xlink:href="#XMLID_25_"  style="overflow:visible;fill:#F3F3F3;"/>
		<clipPath id="XMLID_134_">
			<use xlink:href="#XMLID_25_"  style="overflow:visible;"/>
		</clipPath>
		<polygon id="XMLID_27_" class="st1" points="496.8,54.6 468.1,73.9 474.8,52.8 		"/>
		<path id="XMLID_26_" class="st1" d="M483.4,34.6l-28.7,19.3l19.4,1.6c1.5,0.1,2.9-0.8,3.4-2.3L483.4,34.6z"/>
		<use xlink:href="#XMLID_25_"  style="overflow:visible;fill:none;stroke:#343434;stroke-miterlimit:10;"/>
	</g>
</g>
<path id="XMLID_22_" class="st2" d="M421.7,37.5c0.8-0.9,1.4-1.9,2-2.9c-2.8-1.3-5.9-1.9-9-1.7C417.1,33.5,419.6,35.2,421.7,37.5z"
	/>
<path id="XMLID_21_" class="st2" d="M412.2,43.4l-2.6-8.6c-2.9,1.3-4.7,4.6-5.4,8.9C406.8,44.2,409.5,44.1,412.2,43.4z"/>
<path id="XMLID_20_" class="st2" d="M405.3,55.3c1,3.5,2.6,6.5,4.5,8.9c2.1-2,4.6-3.5,7.4-4.5L412.7,45c-1.7,0.4-3.4,0.7-5,0.7
	c-1.2,0-2.4-0.1-3.6-0.3C403.8,48.4,404.2,51.9,405.3,55.3z"/>
<path id="XMLID_19_" class="st2" d="M420.6,38.7c-2.6-2.8-5.5-4.5-8.3-4.5c-0.4,0-0.7,0-1.1,0.1l2.6,8.6
	C416.4,42,418.7,40.6,420.6,38.7z"/>
<path id="XMLID_18_" class="st2" d="M420.2,70.1l-2.6-8.7c-2.6,0.9-4.9,2.3-6.8,4.2C413.7,68.8,417.1,70.6,420.2,70.1z"/>
<path id="XMLID_17_" class="st2" d="M434.2,46.6c-1.6-5.2-5.2-9.3-9.7-11.6l0.7,0.4c-0.7,1.2-1.5,2.4-2.4,3.4c2.1,2.6,3.8,5.9,5,9.7
	c1.1,3.7,1.5,7.4,1.3,10.8c1.3,0.4,2.6,0.9,3.9,1.5l-0.8,1.5c-1.1-0.5-2.2-1-3.3-1.3c-0.1,0.7-0.2,1.4-0.4,2.1
	c-0.6,2.3-1.6,4.3-2.8,5.7C433.1,64.4,436.9,55.3,434.2,46.6z"/>
<path id="XMLID_16_" class="st2" d="M427.2,60.6c-2.6-0.5-5.3-0.4-8,0.3l2.6,8.7c2.3-1.1,4.1-3.5,5-6.9
	C427,62,427.1,61.3,427.2,60.6z"/>
<path id="XMLID_15_" class="st2" d="M409.7,66.8c-0.8,0.9-1.4,1.9-2,2.9l-1.5-0.8c0.7-1.2,1.5-2.4,2.4-3.4c-2.1-2.6-3.8-5.9-4.9-9.7
	c-1.1-3.8-1.5-7.5-1.3-10.8c-1.3-0.4-2.7-0.9-3.9-1.5l0.3-0.7c-2.4,4.4-3.2,9.8-1.6,15c2.6,8.7,10.8,14.2,19.5,13.7
	C414.3,70.8,411.8,69.2,409.7,66.8z"/>
<path id="XMLID_14_" class="st2" d="M402.6,43.3c0.5-3.1,1.6-5.8,3.3-7.7c-2.7,1.6-5,3.8-6.6,6.4C400.4,42.5,401.5,43,402.6,43.3z"
	/>
<path id="XMLID_13_" class="st2" d="M426.2,49c-1.1-3.5-2.6-6.6-4.5-9c-2.1,2-4.6,3.5-7.4,4.5l4.4,14.7c2.9-0.7,5.8-0.9,8.6-0.3
	C427.6,55.8,427.2,52.4,426.2,49z"/>
<path id="XMLID_10_" class="st3" d="M451.7,90.6c0.6,0.6,1.3,0.4,1.8-0.1c1-1.1-0.1-3.1-1.5-4.5c-3.4-3.3-8.3-2.8-11.6,0.6
	c-3.6,3.7-3.6,9,0,12.6c3.6,3.5,8.9,3.2,12.3-0.3c1.6-1.6,2.6-3.6,2.8-6l2.2,0.5c-0.2,2.5-1.4,5-3.4,7.1c-4.4,4.5-11,4.9-15.5,0.5
	c-4.5-4.4-4.4-11.1,0.1-15.7c4.2-4.3,10.5-4.9,14.7-0.9c2,2,3.8,5.3,1.1,8.2c-1,1.1-2.2,1.5-3.4,1.2c0.1,1.3-0.3,2.5-1.4,3.6
	c-2,2.1-5.1,2.3-7.5,0c-2.4-2.4-2.3-5.5-0.3-7.5c0.9-0.9,2-1.4,3.1-1.5l-0.7-0.7l2-2.1L451.7,90.6z M448.1,91.2
	c-1.2-1.2-2.7-1-3.7,0c-0.9,0.9-1,2.5,0.2,3.6c1.2,1.2,2.8,1,3.7,0.1C449.2,94,449.3,92.4,448.1,91.2z"/>
<circle id="XMLID_9_" class="st4" cx="203.1" cy="26.1" r="2.1"/>
<circle id="XMLID_133_" class="st4" cx="252" cy="-14.1" r="2.1"/>
<circle id="XMLID_7_" class="st4" cx="254.7" cy="8.6" r="2.1"/>
<path id="XMLID_6_" class="st5" d="M181.3-68.3h-1.6v-1.6c0-0.3-0.2-0.5-0.5-0.5c-0.3,0-0.5,0.2-0.5,0.5v1.6h-1.6
	c-0.3,0-0.5,0.2-0.5,0.5c0,0.3,0.2,0.5,0.5,0.5h1.6v1.6c0,0.3,0.2,0.5,0.5,0.5c0.3,0,0.5-0.2,0.5-0.5v-1.6h1.6
	c0.3,0,0.5-0.2,0.5-0.5C181.8-68,181.6-68.3,181.3-68.3z"/>
<path id="XMLID_4_" class="st5" d="M193.2-12.4h-1.6V-14c0-0.3-0.2-0.5-0.5-0.5c-0.3,0-0.5,0.2-0.5,0.5v1.6h-1.6
	c-0.3,0-0.5,0.2-0.5,0.5c0,0.3,0.2,0.5,0.5,0.5h1.6v1.6c0,0.3,0.2,0.5,0.5,0.5c0.3,0,0.5-0.2,0.5-0.5v-1.6h1.6
	c0.3,0,0.5-0.2,0.5-0.5C193.6-12.2,193.4-12.4,193.2-12.4z"/>
<path id="XMLID_8_" class="st5" d="M296.3,47h-1.6v-1.6c0-0.3-0.2-0.5-0.5-0.5c-0.3,0-0.5,0.2-0.5,0.5V47h-1.6
	c-0.3,0-0.5,0.2-0.5,0.5c0,0.3,0.2,0.5,0.5,0.5h1.6v1.6c0,0.3,0.2,0.5,0.5,0.5c0.3,0,0.5-0.2,0.5-0.5v-1.6h1.6
	c0.3,0,0.5-0.2,0.5-0.5C296.7,47.2,296.5,47,296.3,47z"/>
<path id="XMLID_5_" class="st5" d="M279.2,182.7h-1.6v-1.6c0-0.3-0.2-0.5-0.5-0.5c-0.3,0-0.5,0.2-0.5,0.5v1.6h-1.6
	c-0.3,0-0.5,0.2-0.5,0.5c0,0.3,0.2,0.5,0.5,0.5h1.6v1.6c0,0.3,0.2,0.5,0.5,0.5c0.3,0,0.5-0.2,0.5-0.5v-1.6h1.6
	c0.3,0,0.5-0.2,0.5-0.5C279.6,182.9,279.4,182.7,279.2,182.7z"/>
<path id="XMLID_3_" class="st5" d="M203,8.1h-1.6V6.5c0-0.3-0.2-0.5-0.5-0.5c-0.3,0-0.5,0.2-0.5,0.5v1.6H199c-0.3,0-0.5,0.2-0.5,0.5
	c0,0.3,0.2,0.5,0.5,0.5h1.6v1.6c0,0.3,0.2,0.5,0.5,0.5c0.3,0,0.5-0.2,0.5-0.5V9h1.6c0.3,0,0.5-0.2,0.5-0.5
	C203.5,8.3,203.3,8.1,203,8.1z"/>
<path id="XMLID_68_" class="st6" d="M27.1,0C-14.5,41.5,1.9,154.1,47.4,144c9.4-2.1,8.3-11.2,4.9-14.4c-3.8-3.4-9.6-2-8.3,9.9
	c0.7,6.5,16.5,92.2,105.1,63.7"/>
</svg>
